<?xml version="1.0" standalone="no"?>
<!DOCTYPE svg PUBLIC "-//W3C//DTD SVG 1.1//EN" "http://www.w3.org/Graphics/SVG/1.1/DTD/svg11.dtd" >
<svg xmlns="http://www.w3.org/2000/svg" xmlns:xlink="http://www.w3.org/1999/xlink" version="1.1">
<metadata>
Created by FontForge 20161013 at (null) By ,,,
Sirona v. 1.7 - Copyright 1998, David F. Nalle - Scriptorium Fonts.  http://www.ragnarokpress.com/scriptorium
</metadata>
<defs>
<font id="Sirona" horiz-adv-x="540" >
  <font-face 
    font-family="Sirona"
    font-weight="400"
    font-stretch="normal"
    units-per-em="1000"
    panose-1="0 0 4 0 0 0 0 0 0 0"
    ascent="800"
    descent="-200"
    x-height="580"
    cap-height="810"
    bbox="-134 -351 1362 1060"
    underline-thickness="50"
    underline-position="-175"
    unicode-range="U+0020-F002"
  />
<missing-glyph horiz-adv-x="500" 
d="M63 0v800h375v-800h-375zM125 63h250v675h-250v-675z" />
    <glyph glyph-name=".notdef" horiz-adv-x="500" 
d="M63 0v800h375v-800h-375zM125 63h250v675h-250v-675z" />
    <glyph glyph-name=".null" horiz-adv-x="0" 
 />
    <glyph glyph-name="nonmarkingreturn" horiz-adv-x="381" 
 />
    <glyph glyph-name="space" unicode=" " horiz-adv-x="381" 
 />
    <glyph glyph-name="exclam" unicode="!" horiz-adv-x="327" 
d="M278 228l-178 -55l-3 524q-10 31 -38 31q-14 0 -36 -7q-9 -3 -21 23l173 57q11 -27 8 -254q-1 -70 5 -162q7 -98 7 -104q11 -34 29 -34q4 0 15.5 3t17.5 2q12 -3 21 -24zM205 69q0 -31 -22 -57.5t-52 -26.5q-46 0 -46 58q0 33 18.5 60.5t51.5 27.5q10 0 30 -8
q20 -26 20 -54z" />
    <glyph glyph-name="quotedbl" unicode="&#x22;" horiz-adv-x="382" 
d="M332 836q-9 -75 -40 -148q-44 -100 -111 -135q-2 -1 -3 -2q-3 0 -4.5 8.5t-6.5 6.5q25 32 42 83t17 97q0 23 -4 41q41 0 63 15q12 9 47 34zM189 834q-9 -75 -40 -148q-44 -100 -111 -135q-2 -1 -3 -2q-3 0 -4.5 8.5t-6.5 6.5q25 32 42 83t17 97q0 23 -4 41q41 0 63 15
q12 9 47 34z" />
    <glyph glyph-name="numbersign" unicode="#" horiz-adv-x="662" 
d="M755 599q0 -13 -72 -23q-54 -7 -89 -7h-69l-71 -154h74q36 0 90 -7q72 -10 72 -24t-72 -23q-54 -7 -90 -7h-101q-73 -163 -113 -265q-20 -21 -36 -21q-29 0 -38 28q18 54 59 131q60 113 66 127h-164q-68 -153 -106 -250q-20 -20 -36 -20q-29 0 -39 28q18 50 56 122
q57 108 63 120h-33q-35 0 -90 7q-72 9 -72 23t72 24q55 7 90 7h61l71 154h-67q-35 0 -90 7q-72 10 -72 23q0 14 72 24q55 7 90 7h94q18 44 61 146q56 125 78 125q28 0 38 -38q-30 -52 -114 -233h163q16 41 57 138q53 118 76 118q27 0 37 -39q-28 -48 -107 -217h40
q35 0 89 -7q72 -10 72 -24zM464 569h-165l-71 -154h165z" />
    <glyph glyph-name="dollar" unicode="$" horiz-adv-x="502" 
d="M445 248q0 -131 -186 -169q0 -28 -13 -108l-34 11q-2 33 -4 91q-56 0 -175 28q9 15 35 96q10 0 29 -9q25 -15 50 -29q32 -17 54 -17h5l3 1l9 222l-76 34q-44 22 -66 46q-28 33 -28 79q0 86 46 130q39 38 125 55q0 7 -4 47t-4 49q42 9 73 9q-2 -15 -5 -55q0 -9 -4 -45
q43 -2 88 -14q61 -15 61 -37q0 -17 -41 -91q-6 0 -9.5 5.5t-6.5 10.5q-11 14 -29 35q-20 26 -62 28q-7 -38 -7 -93q0 -21 1.5 -65t1.5 -67q41 -19 84 -39.5t63 -46.5q26 -34 26 -92zM220 455l-2 192q-31 -4 -61.5 -36.5t-30.5 -62.5q0 -36 94 -93zM361 250q0 49 -95 90
l-8 -192q52 17 71 32q32 24 32 70z" />
    <glyph glyph-name="percent" unicode="%" horiz-adv-x="833" 
d="M766 237q0 -57 -58 -123t-115 -66q-24 0 -61 21q-31 17 -52 36q-31 28 -31 103q0 49 52.5 113t100.5 64q164 0 164 -148zM673 698q-83 -94 -214 -298t-183 -318q-19 -45 -50 -45q-62 0 -62 21q0 9 57 92q94 136 189 272q119 174 137 220l-5 4q-75 -13 -142 -13
q-47 0 -80 11q1 -7 1 -13q0 -142 -60 -176q-78 -45 -131 -45q-60 26 -82 64q-18 33 -18 100q0 53 39 92q21 20 84 57q4 3 33 31q19 19 42 19q41 -15 70 -32q19 -11 37 -23q34 -17 138 -17q54 0 76 8l62 28q18 -1 36 -9q25 -12 26 -30zM698 222q0 32 -38 62.5t-73 30.5
q-34 0 -47 -28q-8 -19 -8 -64q0 -53 6 -70q11 -29 52 -29q46 0 77 26.5t31 71.5zM265 638q0 19 -17.5 38.5t-36.5 20.5q-100 -48 -100 -151q0 -32 5 -41q8 -13 35 -13q53 0 85 47q29 42 29 99z" />
    <glyph glyph-name="ampersand" unicode="&#x26;" horiz-adv-x="808" 
d="M700 48q-29 -46 -46 -48q-51 29 -98 77q-60 60 -91 84q-33 -77 -93 -129q-64 -55 -133 -55q-89 0 -152 73.5t-63 178.5q0 54 39 120q36 63 80 93q-52 57 -62 76q-21 38 -21 105q0 65 60 123q57 54 113 54q52 0 101 -37q54 -43 54 -102q0 -92 -122 -212q69 -73 172 -148
q11 32 11 80q0 33 -1 35q-11 37 -40 37q-14 0 -36 -8q-8 -3 -21 27l199 63l-11 -51q0 -107 -38 -233q26 -25 86 -80q64 -59 82 -59q12 0 58 28q21 0 21 -13q0 -4 -2.5 -7.5t-45.5 -71.5zM304 647q0 24 -23.5 48t-43.5 24q-36 0 -65 -31t-29 -73q0 -36 68 -115q49 45 63 64
q30 39 30 83zM406 204q-108 88 -215 190q-77 -86 -77 -179q0 -52 45 -104.5t89 -52.5q81 0 158 146z" />
    <glyph glyph-name="quotesingle" unicode="'" horiz-adv-x="287" 
d="M189 834q-9 -75 -40 -148q-44 -100 -111 -135q-2 -1 -3 -2q-3 0 -4.5 8.5t-6.5 6.5q25 32 42 83t17 97q0 23 -4 41q41 0 63 15q12 9 47 34z" />
    <glyph glyph-name="parenleft" unicode="(" horiz-adv-x="343" 
d="M385 -99q-164 68 -271 236q-101 159 -101 320q0 163 99 319q105 166 270 235q-162 -140 -208 -224q-38 -72 -67 -269q-7 -44 -7 -64q0 -12 4 -30q5 -23 6 -30q22 -192 64 -269q45 -81 211 -224z" />
    <glyph glyph-name="parenright" unicode=")" horiz-adv-x="343" 
d="M356 457q0 -161 -101 -320q-107 -168 -271 -236q166 143 211 224q43 78 65 269q1 7 5 30q4 19 4 30q0 21 -6 64q-30 198 -68 269q-45 84 -208 224q166 -69 271 -235q98 -156 98 -319z" />
    <glyph glyph-name="asterisk" unicode="*" horiz-adv-x="411" 
d="M353 661l-100 -15l4 -101l-74 69l-76 -67l8 101l-100 17l83 58l-48 88l97 -29l39 93l38 -94l97 27l-50 -88z" />
    <glyph glyph-name="plus" unicode="+" horiz-adv-x="430" 
d="M383 374q0 -16 -59 -28q-42 -9 -87 -12q-2 -45 -11 -89q-13 -60 -29 -60t-28 60q-9 44 -12 89q-42 3 -83 12q-55 13 -55 28t56 28q40 9 82 12q3 42 13 83q12 55 27 55t28 -55q9 -41 12 -83q44 -3 87 -12q59 -12 59 -28z" />
    <glyph glyph-name="comma" unicode="," horiz-adv-x="240" 
d="M185 113q-8 -75 -40 -148q-44 -100 -111 -135q-2 -1 -3 -1q-2 0 -4 8t-7 6q26 33 43 83.5t17 96.5q0 23 -5 41q41 1 63 15q13 9 47 34z" />
    <glyph glyph-name="hyphen" unicode="-" horiz-adv-x="374" 
d="M329 307q-19 -39 -145 -39q-89 0 -106 1q-55 3 -55 21q0 14 18.5 37t34.5 23q15 0 67 -7t67 -7q6 0 96 8q19 -8 23 -37z" />
    <glyph glyph-name="period" unicode="." horiz-adv-x="287" 
d="M167 63q0 -29 -20.5 -53.5t-49.5 -24.5q-44 0 -44 54q0 31 17 54q19 27 50 27q9 0 29 -7q18 -24 18 -50z" />
    <glyph glyph-name="slash" unicode="/" horiz-adv-x="422" 
d="M434 763q-216 -379 -393 -836q-20 -20 -35 -20q-29 0 -39 28q4 9 16 29q87 141 251 549q23 58 74 156q67 132 89 132q26 0 37 -38z" />
    <glyph glyph-name="zero" unicode="0" horiz-adv-x="595" 
d="M518 436q0 -109 -45 -210q-46 -104 -126 -172q-69 -58 -118 -58q-110 0 -168 138q-44 105 -44 227q0 155 60 277q77 155 218 155q125 0 181 -126q42 -92 42 -231zM427 361q0 126 -44 220q-57 118 -165 118q-61 0 -93 -110q-23 -79 -23 -168q0 -108 50 -204
q59 -113 154 -113q70 0 100 96q21 65 21 161z" />
    <glyph glyph-name="one" unicode="1" horiz-adv-x="392" 
d="M340 43l-15 -25l-55 -9q-87 -13 -102 -23v-2h-26l8 601q1 111 -24 138q-10 32 -39 32v0q-14 0 -35 -7q-9 -3 -21 24l216 46l-4 -678q1 -35 2 -44q3 -24 10 -33t38 -15q9 -1 47 -5z" />
    <glyph glyph-name="two" unicode="2" horiz-adv-x="756" 
d="M676 108q-19 -31 -63 -70q-48 -43 -72 -43l-533 2q43 36 135 115q311 272 311 441q0 71 -47.5 113.5t-118.5 42.5q-52 0 -79 -14q-21 -16 -41.5 -32t-63.5 -33q45 75 130.5 130t158.5 55q80 0 129 -51t49 -131q0 -121 -78 -228q-38 -52 -155 -162q-94 -88 -113 -142z" />
    <glyph glyph-name="three" unicode="3" horiz-adv-x="622" 
d="M541 249q0 -107 -139 -194q-124 -77 -232 -77q-21 0 -77.5 24t-75.5 42q48 44 101 53l88 -28q51 -14 90 -14t86.5 43.5t47.5 80.5q0 90 -51 141q-40 40 -131 68l-119 35q19 9 85.5 39.5t96.5 58.5q45 41 45 99q0 123 -150 123q-39 0 -64 -10q-5 -2 -41 -22
q-20 -11 -62 -27q49 63 141 103q82 36 153 36q57 0 103 -47.5t46 -105.5q0 -62 -51 -107q-4 -4 -88 -59q-21 -14 -27 -25q54 -22 108 -45q58 -27 84 -63q33 -45 33 -122z" />
    <glyph glyph-name="four" unicode="4" horiz-adv-x="889" 
d="M805 270q-66 -55 -126 -72q-44 -12 -127 -12v-57q1 -40 1 -57q0 -35 -8 -72l-112 -25v211q-62 0 -188.5 7t-190.5 7q-8 0 -37 -24v41q31 47 96 127q21 30 66 91q13 17 127 187q85 127 144 178q27 7 109 29v-545q0 -24 27 -24q75 0 219 10zM433 647l-276 -373h276v373z
" />
    <glyph glyph-name="five" unicode="5" horiz-adv-x="709" 
d="M631 782q-21 -25 -57.5 -43.5t-65.5 -18.5h-184q-20 17 -35 17q-3 0 -12 -2q-13 -36 -29 -100q-19 -71 -19 -95q0 -3 37 -13q17 -5 50 -12q112 -23 184 -77q91 -69 91 -172q0 -91 -116 -191q-111 -96 -201 -96h-147q-44 0 -119 60q52 19 113 54q75 -45 95 -45
q130 0 181 26q75 37 75 148q0 109 -76 157q-42 25 -171 54q-75 16 -118 38q36 56 46 140q6 74 11 148q79 55 156 55q41 0 122 -7.5t122 -7.5q31 0 67 22v-39z" />
    <glyph glyph-name="six" unicode="6" horiz-adv-x="562" 
d="M496 257q0 -94 -80 -179.5t-172 -85.5q-96 0 -158 92q-54 80 -54 180q0 144 92 312q100 182 241 251l46 -28q-270 -169 -280 -425q97 92 189 92q83 0 132 -65q44 -59 44 -144zM402 206q0 80 -37 131q-40 58 -112 58q-9 0 -55 -18t-72 -33v-19q0 -102 46 -174
q54 -83 148 -83q42 0 64 48q18 38 18 90z" />
    <glyph glyph-name="seven" unicode="7" horiz-adv-x="598" 
d="M539 802q-66 -122 -387 -802q-1 -2 -68 -8q-62 -6 -70 -6q114 160 223 368q49 92 183 372q-33 5 -82 5q-9 0 -63 2q-49 2 -81 1q-101 -2 -140 -29l1 95h340q20 0 68 1q57 1 76 1z" />
    <glyph glyph-name="eight" unicode="8" horiz-adv-x="535" 
d="M457 238q0 -84 -81 -162.5t-164 -78.5q-85 0 -138.5 56t-53.5 142q0 68 62 129q58 57 144 84l-61 -52q-55 -49 -55 -113q0 -72 49.5 -123.5t120.5 -51.5q74 0 74 116q0 89 -76 157l-142 112q-76 70 -76 162q0 69 74 133q72 61 140 61q62 0 112 -50.5t50 -112.5
q0 -54 -51 -105q-45 -45 -111 -74l8 12q14 23 41 67q22 39 22 64q0 49 -44.5 90.5t-93.5 41.5q-54 0 -54 -90q0 -62 94 -142q10 -8 56 -45q74 -60 105 -100q49 -62 49 -127z" />
    <glyph glyph-name="nine" unicode="9" horiz-adv-x="529" 
d="M458 568q0 -155 -121 -342q-114 -175 -256 -269l-19 54q166 129 269 329v7q-37 -20 -73 -40q-45 -23 -77 -23q-72 0 -123 82q-45 72 -45 146q0 107 71 198q77 97 181 97q96 0 148 -75q45 -65 45 -164zM361 517q0 79 -42 143q-46 72 -118 72q-46 0 -76 -54
q-25 -46 -25 -99q0 -73 52 -142q56 -73 124 -73q56 0 74 51q11 29 11 102z" />
    <glyph glyph-name="colon" unicode=":" horiz-adv-x="223" 
d="M159 469q0 -29 -17 -54q-19 -29 -46 -29q-39 0 -39 57q0 32 13 57q17 30 46 30q9 0 27 -8q16 -26 16 -53zM153 68q0 -29 -18 -56t-45 -27q-39 0 -39 57q0 31 14 56q16 31 45 31q9 0 27 -8q16 -26 16 -53z" />
    <glyph glyph-name="semicolon" unicode=";" horiz-adv-x="240" 
d="M188 469q0 -29 -18 -54q-19 -29 -47 -29q-42 0 -42 58q0 31 15 57q17 30 48 30q8 0 27 -8q17 -26 17 -54zM185 113q-8 -75 -40 -148q-44 -100 -111 -135q-2 -1 -3 -1q-2 0 -4 8t-7 6q26 33 43 83.5t17 96.5q0 23 -5 41q41 1 63 15q13 9 47 34z" />
    <glyph glyph-name="less" unicode="&#x3c;" horiz-adv-x="456" 
d="M462 10q2 -3 0 -7q-1 -3 -5 -3q-3 0 -5 2l-421 446l344 276q2 2 5 2t5 -4t-1 -7l-236 -276z" />
    <glyph glyph-name="equal" unicode="=" horiz-adv-x="374" 
d="M339 330q-18 -40 -190 -40h-60q-55 3 -55 22q0 16 18.5 41.5t35.5 25.5q15 0 44 -7.5t44 -7.5q70 0 141 6q18 -8 22 -40zM321 188q-19 -40 -190 -40h-61q-54 3 -54 22q0 16 18 41t35 25q15 0 44 -7t44 -7q71 0 141 6q19 -9 23 -40z" />
    <glyph glyph-name="greater" unicode="&#x3e;" horiz-adv-x="456" 
d="M466 448l-421 -446q-3 -2 -5 -2q-4 0 -6 3q-1 4 1 7l314 429l-236 276q-3 3 -1 7q1 4 5 4q2 0 4 -2z" />
    <glyph glyph-name="question" unicode="?" horiz-adv-x="535" 
d="M455 574q0 -106 -165 -220q-9 -7 -48 -89q10 -29 38 -29q15 0 37 7q8 2 21 -24l-193 -67q-2 58 -2 68q0 90 69 162l66 62q38 38 56 74q23 48 23 110q0 56 -13 83q-18 36 -64 36q-72 0 -122.5 -52.5t-50.5 -125.5q0 -38 1 -42t14 -27q8 -14 61 -58q-75 5 -120 59
q-40 49 -40 116q0 85 52.5 140t136.5 55q82 0 162.5 -77.5t80.5 -160.5zM251 69q0 -29 -19 -55q-21 -29 -50 -29q-44 0 -44 58q0 32 16 57q18 31 50 31q9 0 29 -8q18 -26 18 -54z" />
    <glyph glyph-name="at" unicode="@" horiz-adv-x="865" 
d="M741 467q0 -108 -58 -204q-67 -112 -171 -112q-60 0 -67 56q-50 -56 -107 -56q-68 0 -108 58q-35 52 -35 121q0 109 54 198q63 105 167 105q70 0 105 -70l15 54h77q-17 -60 -51.5 -187t-34.5 -175q0 -22 13 -22q60 0 99 84q32 70 32 143q0 120 -71 196t-190 76
q-128 0 -208 -105q-73 -96 -73 -231t76 -230q81 -101 212 -101q149 0 224 122h77q-48 -92 -125 -146q-81 -55 -175 -55q-162 0 -265 129q-95 121 -95 287q0 162 95 281q103 128 262 128q144 0 237 -101q89 -98 89 -243zM485 453q0 35 -19 64.5t-50 29.5q-58 0 -98 -74
q-35 -64 -35 -131q0 -42 17 -71q19 -34 55 -34q57 0 97 80q33 68 33 136z" />
    <glyph glyph-name="A" unicode="A" horiz-adv-x="820" 
d="M736 23l-3 -25q-48 9 -154 -2q-10 -1 -40 -8q-26 -6 -40 -6q-4 0 -5 8q-2 12 -2 14l35 7q-7 65 -25 161q-24 127 -40 146q-5 6 -92 7q-84 1 -113 -3q-2 -8 -22 -94q-13 -57 -13 -93q0 -72 6 -86q12 -31 70 -42l-3 -20q-26 0 -76 7t-75 7q-17 0 -51 -7t-52 -8l-6 21
q16 2 47 11q231 609 231 737q0 26 -37 26v0q-48 0 -59 4q3 16 12 21q25 0 75.5 -3.5t76.5 -3.5q25 0 76 7.5t76 7.5v-18q-23 -6 -72 -13q0 -34 16 -92q14 -46 27 -92l78 -310q67 -248 107 -263q4 -1 47 -3zM441 392q-32 103 -99 309q-44 -136 -69 -309h168z" />
    <glyph glyph-name="B" unicode="B" horiz-adv-x="681" 
d="M615 218q0 -107 -89 -175q-81 -63 -190 -63q-35 0 -103 9t-103 9q-13 0 -36.5 -4t-34.5 -5l-4 23q26 -2 35 8q3 3 13 113t10 130q-2 77 -15 248q-12 161 -12 246q0 35 -60 29v22q131 -8 136 -8q29 0 84 9t84 9q77 0 135 -49q61 -52 61 -128q0 -72 -57 -118
q-34 -29 -120 -63q22 -3 67 -10q82 -17 140 -82q59 -68 59 -150zM467 239q0 113 -70 160q-42 29 -154 47v16q76 12 105 50t29 117q0 57 -30 105q-35 55 -89 55q-15 0 -29 -5q-17 -139 -17 -345q0 -53 5.5 -159.5t5.5 -160.5q0 -50 31 -80t81 -30q73 0 107 83q25 60 25 147z
" />
    <glyph glyph-name="C" unicode="C" horiz-adv-x="601" 
d="M540 810q-5 -13 -28 -104q-18 -70 -40 -91q-4 67 -50.5 104t-113.5 37q-111 0 -144 -127q-15 -58 -15 -211q0 -121 60 -239q73 -141 182 -141q89 0 118 67l24 -18q-30 -51 -94 -84.5t-124 -33.5q-289 0 -289 432q0 155 85 275q95 133 243 133q22 0 65.5 -4.5t64.5 -4.5
q22 0 56 10z" />
    <glyph glyph-name="D" unicode="D" horiz-adv-x="808" 
d="M731 404q0 -178 -102 -295q-107 -123 -282 -123q-36 0 -106 7t-106 7q-20 0 -98 -19l-7 21l58 19q26 180 26 493q0 68 -5 141q-9 113 -25 123.5t-49 12.5l3 20q21 0 61.5 -5.5t61.5 -5.5q27 0 80 7t80 7q126 0 204 -39q92 -46 151 -158q55 -105 55 -213zM580 423
q0 126 -76 237q-85 124 -205 124q-40 0 -59 -17q-6 -6 -13 -97q-7 -78 -7 -108q0 -224 4 -300l2 -106q5 -66 27 -100q28 -44 89 -44q128 0 191 150q47 112 47 261z" />
    <glyph glyph-name="E" unicode="E" horiz-adv-x="616" 
d="M511 -14q-24 -6 -68 -6q-73 0 -215 19q-8 -2 -20 -1q-17 2 -21 2q-52 0 -137 -19l-4 21q20 5 58 17q24 56 24 315q0 122 -7 237q-10 192 -33 199q-10 3 -62 0l-3 26q98 0 252 4q174 6 251 6q-44 -101 -41 -167h-21q-15 60 -75 95q-54 31 -121 31q-15 0 -28 -2
q-10 -61 -10 -173q0 -47 3 -158q121 -3 253 52q2 -8 2 -23q0 -16 -6 -72q-5 -50 -3 -71q-25 25 -50 49q-48 37 -122 37q-34 0 -74 -8v-192q0 -83 8 -120q4 -19 23 -23h37q221 0 244 62l17 -3q-10 -39 -12 -43q-19 -46 -39 -91z" />
    <glyph glyph-name="F" unicode="F" horiz-adv-x="575" 
d="M514 808q-34 -84 -44 -201h-3q-10 89 -83 123q-51 24 -153 24q-15 -15 -15 -324q0 -18 5 -23t23 -5q137 0 224 52q-33 -81 -42 -184q-15 16 -19 25q-4 14 -9 28q-9 23 -57 37q-41 13 -86 13q-23 0 -36 -4v-48q0 -139 18 -295q5 -2 67 -8l-3 -21q-13 -1 -36 0.5t-33 1.5
q-64 0 -171 -21l-7 21q15 3 44 12q15 131 15 256q0 415 -19 477q-9 32 -40 32q-6 0 -28 -4l3 27q80 0 243 4q151 5 242 5z" />
    <glyph glyph-name="G" unicode="G" horiz-adv-x="748" 
d="M372 777q-127 0 -174 -132q-30 -82 -30 -238q0 -144 48 -248q64 -138 190 -138q75 0 110 64q27 51 27 132q0 64 -31 108q-35 48 -97 48q-46 0 -106 -50l-10 14q72 81 154 81q101 0 160 -43q67 -48 67 -146q0 -124 -88 -186q-77 -54 -206 -54q-190 0 -278 103
q-83 97 -83 290q0 199 92 310q100 119 295 119q41 0 215 -21l22 35l22 -10q-38 -51 -56 -121q-7 -25 -26 -132h-16q0 5 -1 21q-8 87 -67 142q-57 52 -133 52z" />
    <glyph glyph-name="H" unicode="H" horiz-adv-x="831" 
d="M752 787q-21 -4 -65 -11q-19 -73 -23 -220v-227q0 -290 19 -307q12 -10 41 -13l16 -10l-12 -15q-66 16 -97 16q-74 0 -144 -20l-8 16q7 4 27 8q17 4 25.5 13.5t18.5 154.5q9 131 8 174l-1 22q-26 3 -110 3q-173 0 -218 -10q-1 -4 -1 -108q0 -226 8.5 -232.5t68.5 -13.5
l-3 -22q-6 0 -68 9q-40 6 -67 6q-13 0 -132 -11l-3 21q20 2 59 11q27 141 27 282v131q0 68 -7 179q-10 146 -25 158q-4 4 -24 7t-28 7l4 16q124 -6 128 -6q5 0 134 9l2 -16q-16 -10 -60 -14q-14 -56 -14 -141v-166l2 -38q12 -1 40 -2t43 -1q167 0 244 8v172q-2 103 -21 170
q-18 2 -53 5v23q24 1 34 1q21 0 63.5 -4t64.5 -4q51 0 104 10z" />
    <glyph glyph-name="I" unicode="I" horiz-adv-x="336" 
d="M291 12v-21q-145 8 -151 8q-17 0 -51.5 -5t-51.5 -5h-13l-4 18q17 1 47 10q6 33 13 152q13 219 13 400q0 83 -16 207q-15 4 -54 13v21h11q21 0 62.5 -7t62.5 -7q7 0 119 10l-2 -5q1 -6 -3 -16q-10 -2 -47 -7q-7 -20 -13 -103q-5 -69 -5 -109v-348q0 -130 19 -200
q22 -1 64 -6z" />
    <glyph glyph-name="J" unicode="J" horiz-adv-x="357" 
d="M305 800l-41 -20q-26 -57 -26 -476l1 -147q0 -20 4 -61.5t4 -61.5q-28 -22 -48.5 -34t-41.5 -40q-17 -24 -35 -47q-58 -68 -100 -98q-56 -40 -130 -55l-26 27q154 32 210 149q35 73 50 263q9 115 9 344q0 44 -10 122q-12 99 -28 106q-21 9 -67 10l3 22q13 0 35.5 -1.5
t32.5 -1.5h109q19 0 93 18z" />
    <glyph glyph-name="K" unicode="K" horiz-adv-x="776" 
d="M665 775q-87 -73 -152 -128q-155 -135 -173 -162q78 -116 234 -347q30 -45 97 -129q64 -71 149 -83l-27 -14q-26 1 -56 17q-26 14 -50.5 27t-54.5 24q-91 31 -165 106q-47 48 -118 152q-76 112 -118 158v-249q0 -96 15 -126l62 -18l-6 -17q-52 14 -140 14q-23 0 -46 -5
q-31 -7 -46 -9l-37 -4l-6 21l65 15q31 146 31 405v95q0 181 -21 259q-34 5 -63 1v26q165 -7 171 -7q15 0 44 6.5t45 5.5h14l3 -20q-2 0 -39 -7q-18 -3 -24 -25q-16 -59 -20 -319q185 156 279 340l-39 9v18q103 -8 245 -5v-21z" />
    <glyph glyph-name="L" unicode="L" horiz-adv-x="619" 
d="M263 -1h-111q-40 0 -106 -20l-10 19q13 5 26 9.5t16 17.5q29 119 29 405v124q0 123 -19 218q-3 1 -60 7v24q42 -9 87 -9q30 0 76 3t76 3q2 0 19.5 3.5t20.5 3.5l1 -18q-17 -3 -33 -6q-22 -5 -29 -15q-28 -36 -28 -616q0 -67 8 -93h39q49 0 130 5q102 6 120 14q7 20 20 59
l21 -2q-17 -54 -38 -165q-39 1 -128 15q-85 14 -127 14z" />
    <glyph glyph-name="M" unicode="M" horiz-adv-x="942" 
d="M859 13l-3 -19q-7 0 -21.5 2t-22.5 2l-111 -1q-15 -1 -42.5 -7.5t-41.5 -6.5l-4 18q47 7 47 54q0 110 -7 273l-12 274q-58 -196 -105 -333q-92 -269 -129 -287q-57 127 -119 310q-53 157 -105 315q-4 -28 -4 -81v-175q0 -47 5 -143t5 -144q0 -36 16 -43q7 -3 62 -7
l-15 -22q-14 1 -50 5q-32 4 -51 4q1 0 -30 2q-9 0 -29 -5l-62 -7v21q18 0 51 8q72 372 72 653q0 15 -16 57q-18 46 -29 46h-43v24h42q33 -1 42 -1q66 0 113 8q64 -253 197 -654q37 80 103 323q68 253 69 325q78 -1 85 -1q53 0 109 9l4 -20l-49 -9l-6 -6q-5 -26 -5 -45v-168
q0 -281 40 -535z" />
    <glyph glyph-name="N" unicode="N" horiz-adv-x="875" 
d="M795 790q-26 -4 -69 -10q-38 -184 -38 -520q0 -93 4 -274q-42 55 -128 162q-86 99 -249 303q-42 59 -128 176v-46q0 -185 51 -500q4 -24 12 -52q20 -10 68 -9l-3 -25q-77 5 -92 5q-47 0 -165 -13v23l36 3l16 9q28 131 28 334v333q0 29 -38.5 57.5t-68.5 28.5v23
q112 0 201 16q71 -141 190 -303q62 -85 220 -281q3 62 3 118q0 237 -49 423l-10 4l-70 1v28q85 -4 94 -4q77 0 182 14z" />
    <glyph glyph-name="O" unicode="O" horiz-adv-x="797" 
d="M722 404q0 -171 -86 -287q-95 -130 -260 -130q-347 0 -347 424q0 165 98 279q104 119 266 119q159 0 249 -127q80 -112 80 -278zM576 404q0 120 -49 231q-63 140 -167 140q-105 0 -151 -136q-32 -92 -32 -223q0 -135 45 -246q61 -149 174 -149q180 0 180 383z" />
    <glyph glyph-name="P" unicode="P" horiz-adv-x="657" 
d="M593 611q0 -133 -88 -210q-80 -69 -217 -84l-4 22l28 -1q65 -2 104 92q30 74 30 151q0 74 -37 134q-42 69 -112 69q-36 0 -49 -20q-11 -16 -11 -53q0 -65 -2 -193.5t-2 -192.5q0 -173 32 -299q13 -6 36 -8q29 -4 36 -5v-18q-20 0 -63.5 3t-66.5 3q-56 0 -160 -28l-4 22
q21 3 59 19q19 70 19 196v148q0 77 -12 226q-15 186 -33 194q-11 4 -51 4v16l8 6q85 -5 94 -5q37 0 111.5 7.5t111.5 7.5q96 0 166 -52q77 -58 77 -151z" />
    <glyph glyph-name="Q" unicode="Q" horiz-adv-x="824" 
d="M1362 -129q-230 -88 -368 -88q-86 0 -184 33q-42 13 -175 69q-45 23 -135 66q-36 16 -120 35q-18 5 -77 11q-47 5 -75 15q-196 77 -196 382q0 179 95 295q102 124 277 124q169 0 263 -140q81 -120 81 -298q0 -114 -45 -207q-52 -106 -149 -144q58 -13 169 -66
q107 -52 170 -63q151 -27 337 -27q64 0 132 3zM603 346q0 143 -51 268q-66 164 -187 164q-108 0 -156 -118q-34 -84 -34 -212q0 -158 46 -271q63 -157 196 -157q186 0 186 326z" />
    <glyph glyph-name="R" unicode="R" horiz-adv-x="867" 
d="M818 10q-59 -18 -77 -18q-150 0 -236 92q-55 86 -111 172q-60 92 -150 92q-13 0 -22 -3q14 -313 30 -321q11 -6 69 -14l-15 -21q-18 0 -55 6t-56 6q-76 0 -151 -29l-9 25q23 4 65 21q17 132 17 191q0 551 -39 566q-10 4 -67 6v16q14 6 50 6q18 0 53.5 -2t52.5 -2
q29 0 86.5 7t86.5 7q99 0 176 -56q85 -61 85 -158q0 -79 -60 -141q-50 -53 -132 -84q64 -13 114 -70q30 -35 77 -118t75 -115q47 -54 143 -61zM450 564q0 89 -36 148q-44 71 -127 71q-15 0 -36 -4q-31 -6 -31 -15l-2 -318l-12 -40q-6 -23 24 -31q18 -4 42 -4q88 0 134 54
q44 50 44 139z" />
    <glyph glyph-name="S" unicode="S" horiz-adv-x="605" 
d="M538 218q0 -121 -100 -184q-84 -52 -213 -52q-28 0 -82.5 8.5t-81.5 9.5l-27 -12l-4 13q33 42 33 96q0 17 -8 49.5t-7 49.5v8l23 2v-17q0 -60 99 -110q87 -44 154 -44q54 0 89 23q42 27 42 79q0 85 -107 154l-200 118q-107 77 -107 183q0 101 94 165q83 57 190 57
q24 0 92 -3q58 -4 93 -2q-54 -91 -50 -193h-16q-16 58 -78.5 100t-125.5 42q-42 0 -75 -20q-38 -23 -38 -62q0 -97 107 -168l198 -116q106 -73 106 -174z" />
    <glyph glyph-name="T" unicode="T" horiz-adv-x="745" 
d="M673 830q-44 -94 -74 -182l-21 -2l2 25q0 26 -72 36q-48 4 -97 8l-5 -2q-4 -26 -4 -103q0 -557 28 -585q6 -7 60 -9l-9 -27q-69 11 -103 11q-42 0 -164 -28l-5 27q16 3 33 5q21 3 30 11q19 86 22 207q1 8 1 208q0 211 -21 283q-21 3 -44 3q-61 0 -108 -19
q-55 -23 -74 -68l-18 5q52 97 76 196h22l-7 -32q74 0 205 1q144 1 205 1q109 0 118 30h24z" />
    <glyph glyph-name="U" unicode="U" horiz-adv-x="808" 
d="M731 791q-32 -2 -45 -10q-29 -235 -29 -653q0 -49 9 -70q13 -33 54 -33v-26q-27 4 -53 4q-63 0 -120 -22l-7 9l4 114q-97 -73 -119 -84q-59 -32 -142 -32q-118 0 -164 83q-34 61 -34 184q0 27 1.5 77t1.5 72q0 303 -27 364l-29 6l4 30q27 -10 68 -10q29 0 87.5 6.5
t88.5 5.5v-35q-48 2 -57 0q-23 -81 -28 -211q-2 -48 -2 -215q0 -127 34 -185q45 -76 164 -76q162 0 162 153q0 50 5 150t5 151q0 32 -4 96t-4 96q0 48 -38 48l-62 -5v32q118 -5 123 -5q31 0 76 7q67 12 75 13z" />
    <glyph glyph-name="V" unicode="V" horiz-adv-x="824" 
d="M741 789q-12 -1 -32 -9q-10 -9 -154 -375q-86 -219 -172 -437h-19q-38 87 -79 213l-70 216q-31 96 -63 192q-40 113 -85 182l-31 2q0 34 -1 16q1 9 8 11q32 -3 124 -3q61 0 93 14h15v-25l-51 -11l-1 -3q44 -160 88 -319q53 -192 106 -314q44 104 94 314q53 220 54 320
l-1 5l-58 4q5 6 11 11q1 1 -1 9q89 -3 106 -3q-4 0 116 8z" />
    <glyph glyph-name="W" unicode="W" horiz-adv-x="1181" 
d="M1089 814l-19 -29h-26q-15 0 -29 -10q-6 -5 -122 -371q-123 -389 -145 -442q-30 15 -107 260q-53 169 -86 302q-26 -77 -73 -239q-46 -158 -74 -238t-40 -80q-14 0 -49 105q-52 177 -104 353q-63 212 -128 346q-25 5 -58 3v18l11 13q128 -7 140 -7q22 0 62.5 5t60.5 6
l6 -23q-27 -7 -62 -13q18 -134 68 -299q22 -76 96 -292q20 51 66 225q49 183 49 219q0 11 -20.5 74.5t-26.5 67.5q-14 10 -48 11l3 23q25 0 78 -2t79 -2q16 0 83 10l4 -22q-30 -2 -45 -11v-26q0 -96 55 -299q44 -163 94 -296q95 337 95 596q0 33 -38 33q-10 0 -30 -3v28
q113 -7 115 -7q29 0 82 6q58 6 83 7zM341 402h-11v11h11v-11z" />
    <glyph glyph-name="X" unicode="X" horiz-adv-x="834" 
d="M757 -6q-33 0 -99 7q-60 -10 -178 -21l-3 26l47 10q-41 110 -171 314q-107 -155 -147 -296q23 -8 62 -9v-28q-92 7 -141 7q-46 0 -87 -5l-11 32l57 5q53 49 130 159q68 96 112 177l-192 342l-18 36q-14 22 -29.5 22t-42.5 2l-3 39q52 -15 116 -15q72 0 150 9l2 -20
l-44 -12q30 -116 136 -291q104 174 135 287q-15 4 -62 2q-1 17 0 31q96 -6 103 -6q40 0 131 11l-1 -30q-18 -1 -33 1q-3 0 -12 -4q-57 -84 -114 -167q-70 -101 -121 -162q-1 -38 120 -212q104 -151 159 -212q24 -2 49 -6v-23z" />
    <glyph glyph-name="Y" unicode="Y" horiz-adv-x="830" 
d="M754 802l-2 -15q-17 -1 -43 -9q-22 -40 -51 -94q-11 -21 -131 -220q-16 -26 -32 -51q-16 -30 -18 -56q-2 -18 -2 -53q0 -249 20 -284q29 -3 66 -3l1 -17l-1 -13h-12q-21 0 -63 6t-63 6l-5 3q-12 -2 -78 -12q-47 -7 -78 -7v29q25 4 75 11q3 19 4 75q2 48 10 75
q-5 20 -5 45q0 13 2 40t2 40q0 31 -9 54q-15 43 -125 209q-103 155 -146 207q-16 2 -37 8l-5 26q10 1 28 -1t26 -2q128 0 209 9l2 -20q0 -11 -17 -11q22 1 -23 1q-8 0 -16 -3q49 -97 207 -351q30 50 78 172q51 129 57 176h-65v32q105 -5 109 -5q60 0 131 18v-15z" />
    <glyph glyph-name="Z" unicode="Z" horiz-adv-x="611" 
d="M558 819q-177 -336 -361 -713q29 -5 67 -6q27 -1 70 0q56 1 68 1q99 0 123 12q2 19 10 41l18 -3v-19q0 -27 -8 -73q-9 -54 -11 -73q-185 17 -364 17q-76 0 -145 -3q145 163 239 338q53 99 168 371q-84 -1 -168 -1q-130 -1 -146 -21q-7 -9 -10 -24.5t-6 -29.5l-23 2
q13 136 8 202h19l7 -23q106 -17 225 -17q130 0 220 22z" />
    <glyph glyph-name="bracketleft" unicode="[" horiz-adv-x="307" 
d="M313 -12l-75 -44q-22 0 -67.5 4.5t-68.5 4.5q-26 0 -46 -5l-7 -9l-72 -41q14 76 14 185q0 72 -7 215.5t-7 216.5q0 45 1 136t1 136l69 40q46 -17 103 -17q34 0 55 8q14 6 51 29q-4 -5 -4 -9q0 -5 2.5 -4t2.5 -3q0 -2 -1 -3q-60 -38 -82 -47q-35 -15 -79 -15q-20 0 -46 2
q0 -17 -1 -108v-109q0 -72 6.5 -217t6.5 -217q0 -91 -10 -158q39 23 56 29q24 8 62 8q24 0 72 -4t71 -4z" />
    <glyph glyph-name="backslash" unicode="\" horiz-adv-x="422" 
d="M434 -65q-10 -28 -38 -28q-17 0 -35 20q-178 456 -394 836q11 38 38 38q21 0 87 -128q49 -96 75 -160q103 -252 115 -280q70 -159 136 -269q6 -9 16 -29z" />
    <glyph glyph-name="bracketright" unicode="]" horiz-adv-x="307" 
d="M313 -102l-72 41l-7 9q-20 5 -46 5q-23 0 -68.5 -4.5t-67.5 -4.5l-75 44q23 0 71 4t72 4q38 0 62 -8q17 -6 56 -29q-10 67 -10 158q0 72 6.5 217t6.5 217v109q-1 91 -1 108q-16 -1 -35 -1q-60 0 -91 13q-12 5 -81 48q-3 2 0 4q4 3 4 4q0 6 -4 11q37 -23 51 -29
q21 -8 55 -8q57 0 103 17l69 -40q0 -46 1 -136.5t1 -135.5q0 -73 -7 -216.5t-7 -215.5q0 -109 14 -185z" />
    <glyph glyph-name="asciicircum" unicode="^" horiz-adv-x="469" 
d="M176 705q-19 -35 -73 -70q-83 -55 -86 -58l45 79q2 1 84 55q48 31 68 71q28 -51 80 -79q6 -3 104 -43l-40 -70q-93 38 -102 42q-54 29 -80 73z" />
    <glyph glyph-name="underscore" unicode="_" horiz-adv-x="795" 
d="M751 -83l-208 16q-133 10 -204 10l-329 -9l3 47l340 2q-1 0 398 -5v-61z" />
    <glyph glyph-name="grave" unicode="`" horiz-adv-x="287" 
d="M189 564q-6 2 -7.5 -6l-1.5 -8q-63 0 -110 110q-36 82 -46 174q45 -33 49 -35q25 -13 61 -14q-5 -19 -5 -41q0 -106 60 -180z" />
    <glyph glyph-name="a" unicode="a" 
d="M478 51l-64 -20q-37 -13 -58 -31h-22q-5 47 0 76h-6q-16 0 -87.5 -38t-113.5 -38q-61 0 -82 37q-16 27 -16 92q0 104 88 174q82 65 189 65q14 0 27 -1l1 33q1 70 -26 91q-22 16 -96 16q-23 0 -75 -19.5t-73 -35.5l-23 22q98 107 228 107q61 0 108 -33q53 -36 53 -94v-346
q0 -37 22 -37q5 0 21 2zM334 161l-1 143q-14 6 -30 6q-74 0 -129.5 -47.5t-55.5 -120.5q0 -34 1 -38q2 -7 25 -31q72 11 106 24q59 21 84 64z" />
    <glyph glyph-name="b" unicode="b" horiz-adv-x="672" 
d="M611 266q0 -133 -101 -212q-94 -72 -230 -72q-91 0 -124 52q-25 38 -25 122q0 14 1 44t1 45l-1 436q0 17 -21 30t-39 13q-8 0 -26 -5q-12 0 -24 28l187 63q19 -48 19 -173q0 -31 -1 -75q-2 -55 -2 -61h9q95 79 192 79q96 0 147 -115q38 -88 38 -199zM511 226
q0 85 -40 178q-49 113 -123 113q-26 0 -72.5 -46.5t-46.5 -73.5q1 -78 3 -235q0 -56 32.5 -87t87.5 -31q77 0 120 53q39 50 39 129z" />
    <glyph glyph-name="c" unicode="c" horiz-adv-x="539" 
d="M494 122q-123 -137 -239 -137q-115 0 -177 80q-56 73 -56 190q0 133 74 226q79 100 209 100q71 0 156 -44q-37 -66 -77 -66q-25 0 -72.5 12t-71.5 12q-77 0 -102 -47q-18 -33 -18 -119q0 -125 39 -190q49 -82 165 -82q35 0 87 24q42 20 83 41z" />
    <glyph glyph-name="d" unicode="d" horiz-adv-x="675" 
d="M615 54l-188 -62l-23 61q-14 -1 -82.5 -32.5t-116.5 -31.5q-83 0 -135 81q-46 71 -46 159q0 353 287 353q31 0 102 -26v88q1 38 -4 53q-9 30 -38 30q-6 0 -18 -3.5t-18 -3.5q-13 0 -25 27l202 73q0 -36 -2 -320q-2 -193 -2 -319q0 -107 44 -107q16 0 40 8zM409 101v364
q-27 11 -76 27q-57 18 -74 18q-83 0 -112 -84q-17 -50 -17 -154q0 -88 36 -143q43 -64 126 -64q47 0 117 36z" />
    <glyph glyph-name="e" unicode="e" horiz-adv-x="559" 
d="M511 104q-49 -52 -114 -85q-70 -33 -137 -33q-119 0 -177 85q-50 73 -50 197q0 127 64 215q72 99 193 99q93 0 155 -69q59 -67 59 -161q0 -28 -13 -60q-49 -7 -113 -7q-30 0 -89.5 2t-89.5 2q-41 0 -74 -3q8 -95 54 -157q54 -72 143 -72q45 0 66 10q27 18 55 35zM407 389
l-21 64q-27 34 -50 47q-30 16 -79 15q-70 -2 -101 -58q-19 -33 -34 -120l283 -2q2 6 2 54z" />
    <glyph glyph-name="f" unicode="f" horiz-adv-x="510" 
d="M481 731l-48 -30q-33 -19 -51 -19q-8 0 -27 10.5t-35 9.5l-42 -2q-17 0 -26 -48q-7 -35 -6 -62v-9h187q-19 -29 -55 -70q14 1 -92 1q-27 0 -42 -4l4 -335v-72q1 -50 8 -69q-17 -10 -104 -62l-4 537q-69 0 -138 6l5 26l139 50l-1 28q-3 55 41 89q18 15 91 49q24 12 48 23
q29 13 51 16q67 -31 97 -63z" />
    <glyph glyph-name="g" unicode="g" horiz-adv-x="655" 
d="M595 518q-62 -8 -111 -48q15 -41 15 -90q0 -93 -42 -143q-34 -41 -107 -64l-144 -38q-47 -13 -47 -33q0 -39 131 -58l182 -24q63 -18 80 -43t17 -93q0 -107 -114 -172q-96 -55 -211 -55q-102 0 -154 20q-80 31 -80 117q0 71 39 101q16 11 102 41l61 -11q-99 -49 -99 -100
q0 -44 72 -74.5t168 -30.5q45 0 84.5 39.5t39.5 84.5q0 75 -63 100q-38 15 -137 17t-134 18q-79 34 -79 88q0 15 49.5 55t49.5 50q-49 6 -71 62q-17 41 -17 100q0 103 65.5 174.5t167.5 71.5q41 0 119.5 -20t119.5 -20q24 0 35 5zM403 334q0 72 -49.5 124.5t-120.5 52.5
q-61 0 -61 -90q0 -84 31 -144q40 -75 116 -75q35 0 62 50q22 43 22 82z" />
    <glyph glyph-name="h" unicode="h" horiz-adv-x="759" 
d="M683 42l-181 -56q7 294 7 302q0 219 -170 219q-12 0 -54 -15.5t-56 -24.5v-428q-37 -15 -71 -46l-32 -5l1 667q0 79 -51 79q-5 0 -16.5 -3t-16.5 -3q-11 0 -21 22l202 73v-302h5l71.5 30t116.5 30q83 0 137 -64.5t53 -148.5l-1 -258q0 -49 18 -49q9 0 26 4.5t26 4.5
q5 0 7 -28z" />
    <glyph glyph-name="i" unicode="i" horiz-adv-x="338" 
d="M220 834q-12 -104 -103 -197q-36 -7 -58 -7q36 45 45 70q11 29 11 82q27 0 56 18q25 17 49 34zM294 48l-183 -68l-1 493q0 11 -11 19t-22 8q-14 0 -36 -8l-21 26l177 68q5 -28 5 -130l-1 -352q0 -14 15 -24.5t30 -10.5q12 0 27 5z" />
    <glyph glyph-name="j" unicode="j" horiz-adv-x="258" 
d="M212 840q-12 -104 -103 -198q-36 -7 -57 -7q35 46 45 71q11 29 11 82q26 0 55 18q24 17 49 34zM205 580v-700q-70 -182 -178 -230q-3 -1 -6 -1q-6 0 -6 8l3 7q70 62 88 173q8 50 8 202v367v61q-6 27 -33 27q-5 0 -16 -3.5t-16 -3.5q-10 0 -22 26z" />
    <glyph glyph-name="k" unicode="k" horiz-adv-x="689" 
d="M628 38q-18 -13 -54 -35q-9 -5 -34 -9q-21 -4 -35 -17q-15 29 -54 84q-64 65 -127 129q-96 98 -103 128q54 38 109 76q56 49 56 114q0 9 -1 19q37 12 70 32q7 5 63 46l-11 -68q-49 -50 -97 -100q-63 -66 -84 -104q98 -136 302 -295zM209 809l-2 -770q-30 -19 -87 -58h-29
q28 193 28 352q0 5 -2 375q-15 17 -33 17q-7 0 -19.5 -5.5t-18.5 -5.5q-11 0 -24 27z" />
    <glyph glyph-name="l" unicode="l" horiz-adv-x="361" 
d="M305 46l-16 -25q-42 -11 -157 -32v-2h-26l4 514q0 10 1.5 59.5t1.5 76.5q0 40 -4 54q-6 28 -30 28q-7 0 -19.5 -3.5t-17.5 -3.5q-11 0 -24 27l196 72q0 -100 -4 -340q-4 -225 -4 -341q0 -56 21 -70q12 -8 78 -14z" />
    <glyph glyph-name="m" unicode="m" horiz-adv-x="1103" 
d="M1027 36l-204 -72q0 49 2.5 152t2.5 155q0 234 -134 234q-17 0 -60.5 -20t-55.5 -33l6 -424q-45 -39 -116 -57l1 424q0 56 -36 86t-93 30q-32 0 -66 -20q-38 -24 -38 -53l2 -410q-57 -41 -119 -67q5 23 5 52q0 432 -5 454q-7 30 -41 30q-6 0 -18.5 -3.5t-18.5 -3.5
q-13 0 -25 27l198 66q1 -34 5 -66q19 5 90 40q45 22 101 22q47 0 75 -14q13 -7 40 -31q23 -22 48 -31q14 1 74 40q57 36 100 36q84 0 132 -50t50 -135q5 -166 3 -293q-1 -17 8.5 -31t26.5 -14q6 0 17.5 3.5t18.5 3.5q12 0 24 -27z" />
    <glyph glyph-name="n" unicode="n" horiz-adv-x="764" 
d="M699 60l-202 -73l-6 368q-2 65 -32 108q-34 48 -97 48q-81 0 -107 -33q-21 -28 -21 -112q0 -53 3.5 -158t3.5 -155q-25 -28 -117 -67q17 131 17 149q0 159 -9 276q-2 27 -23 45t-49 18q-16 0 -35 -6l-8 31l203 73q-4 -31 -4 -43q0 -3 2 -22h13q108 73 204 73
q102 0 143 -103q28 -72 28 -208q0 -23 -1 -62t-1 -54q0 -73 37 -73q6 0 17 3.5t17 3.5q10 -10 24 -27z" />
    <glyph glyph-name="o" unicode="o" horiz-adv-x="602" 
d="M537 289q0 -104 -78 -204q-83 -106 -184 -106q-125 0 -188 75q-58 70 -58 197q0 128 24 182q30 68 131 120q55 28 126 28q120 0 179 -89q48 -75 48 -203zM425 272q0 72 -14 108q-12 31 -57 93q-21 8 -42 17q-27 9 -63 10q-81 2 -109 -58q-18 -39 -18 -131q0 -102 47 -173
q54 -83 151 -83q61 0 87 83q18 55 18 134z" />
    <glyph glyph-name="p" unicode="p" horiz-adv-x="625" 
d="M571 250q0 -111 -78.5 -193.5t-188.5 -82.5q-24 0 -94 26q2 -50 2 -65q0 -36 -1 -107t-1 -107q-34 -22 -97 -71q0 62 1.5 189t1.5 190q0 10 1 136q2 116 1 183q0 96 -5 119q-6 27 -34 27q-6 0 -16.5 -3t-16.5 -3q-12 0 -23 25l181 67v-72h10q33 27 76 48q51 26 85 26
q111 0 160 -118q36 -85 36 -214zM316 508q-42 0 -108 -57l8 -368q68 -38 122 -38q76 0 114 76q29 59 29 143q0 89 -38 159q-46 85 -127 85z" />
    <glyph glyph-name="q" unicode="q" horiz-adv-x="602" 
d="M528 -278l-102 -72v414q-27 -7 -86 -47q-48 -33 -108 -33q-98 0 -151 92q-43 76 -43 182q0 147 77 233q80 91 225 91q24 0 69.5 -12t69.5 -12q15 0 49 19v-855zM417 472q-22 2 -73 16q-47 12 -75 12q-134 0 -134 -184q0 -98 37 -164q45 -82 135 -82h41q76 0 76 135
q0 15 -1 41t-1 35q0 16 1 64q2 40 1 65q-1 35 -7 62z" />
    <glyph glyph-name="r" unicode="r" horiz-adv-x="557" 
d="M507 520q-30 -8 -59.5 -27t-57.5 -38q-16 26 -57 26q-65 0 -85 -27q-16 -22 -15 -91l5 -333q-15 -13 -55.5 -29.5t-55.5 -28.5v199q0 -9 1 97q1 71 -1 116q-2 63 -9 92q-5 25 -38 25q-19 0 -51 -10l-9 36l162 55l40 -96q28 16 88 40q18 8 48.5 27.5t45.5 26.5
q39 -17 54 -25q25 -14 49 -35z" />
    <glyph glyph-name="s" unicode="s" horiz-adv-x="481" 
d="M425 186q0 -67 -89 -137q-86 -66 -154 -66q-37 0 -94 23q-67 26 -69 55q36 19 88 59q77 -54 155 -54q29 0 53.5 17t24.5 45q0 74 -77 115q-71 31 -143 61q-76 40 -76 110q0 61 71 115q67 51 130 51q131 0 170 -59q-30 -13 -91 -58q-38 41 -139 41q-44 0 -44 -33
q0 -66 42 -91q14 -9 99 -31q143 -38 143 -163z" />
    <glyph glyph-name="t" unicode="t" horiz-adv-x="530" 
d="M452 582l-37 -63q-107 -1 -148 -13l1 -390q0 -44 29 -58q14 -6 67 -11l-8 -26q-33 0 -108 -17.5t-79 -17.5q0 50 -2 149t-2 148q0 128 9 214l-59 2l-94 -1l3 28q26 7 75 28.5t76 28.5q0 16 -2 52q-1 32 -1 52q-27 19 -59 19q-13 0 -25 -3l-20 22l203 74l-5 -218z" />
    <glyph glyph-name="u" unicode="u" horiz-adv-x="748" 
d="M691 49l-199 -66q-2 26 -14 69q-118 -62 -188 -62q-91 0 -138 51.5t-46 142.5l4 273q0 12 -12 21t-24 9q-13 0 -36 -7l-24 27l199 73v-384q0 -59 45 -99t104 -40q52 0 85 24q38 26 37 76l-4 380q39 13 116 43v-76q0 -32 -4.5 -96t-4.5 -97q0 -10 6 -212q1 -12 12 -21
t23 -9q15 0 40 8z" />
    <glyph glyph-name="v" unicode="v" horiz-adv-x="846" 
d="M775 583q-5 -38 -143 -276q-86 -146 -173 -291q-45 -19 -81 -40q-134 333 -248 491q-24 34 -49 34q-5 0 -15.5 -2.5t-16.5 -2.5q-20 0 -31 28q77 19 88 23q52 14 85 31q49 -48 128 -224q11 -26 108 -224q37 36 122 179q90 149 91 186l-90 39l15 20q13 -3 35 -3
q55 0 175 32z" />
    <glyph glyph-name="w" unicode="w" horiz-adv-x="1111" 
d="M1033 582q-19 -71 -101 -296q-90 -247 -110 -264q-8 -7 -100 -34q-14 75 -64 214q-53 149 -88 202q-62 -77 -105 -182q-15 -35 -71 -199q-56 -20 -91 -38l-38 150q-24 89 -48 148q-54 134 -94 185q-17 22 -45 22q-7 0 -20.5 -3.5t-19.5 -3.5q-10 0 -22 25l199 74
l146 -403q111 155 173 353q30 17 104 51q3 -48 67 -218q61 -163 92 -214q38 72 73 158q46 113 46 163q-16 32 -50 32q-8 0 -15 -2l-22 25z" />
    <glyph glyph-name="x" unicode="x" horiz-adv-x="794" 
d="M718 80l-1 -35q-61 -19 -183 -61l-170 222q-149 -165 -313 -218v43q53 17 145 103q85 79 121 134q-10 19 -108.5 122.5t-108.5 103.5q-8 0 -23.5 -5t-21.5 -5q-12 0 -25 27l183 68q23 -55 100 -148q13 -16 42.5 -40.5t41.5 -38.5q93 94 95 146q19 17 86 45q47 20 93 39
q-31 -59 -75 -109.5t-88 -99.5q-32 -29 -73 -74q34 -56 96 -133q78 -99 110 -106z" />
    <glyph glyph-name="y" unicode="y" horiz-adv-x="853" 
d="M777 582q-1 -53 -81 -206q-59 -113 -116 -202q-27 -39 -77 -119q-78 -139 -107 -184q-60 -93 -131 -168q-45 -47 -71 -53q-58 52 -90 52q-5 0 -8 -1q64 46 164 141q120 115 132 159q-40 104 -110 252q-96 204 -129 208q-37 33 -54 33q-9 0 -25 -5.5t-23 -5.5
q-12 0 -24 27l199 71q74 -96 131 -222q51 -114 111 -235q30 38 105 166q80 137 83 167q-9 30 -38 30q-7 0 -19.5 -3.5t-17.5 -3.5q-13 0 -25 27z" />
    <glyph glyph-name="z" unicode="z" horiz-adv-x="707" 
d="M637 86q-17 -21 -43.5 -43.5t-50.5 -42.5q-54 0 -162 -1t-162 -1q-110 0 -192 3q213 175 364 374q23 29 46 59q27 36 31 67q-135 -1 -405 -10q24 12 76 46q49 31 77 43q47 0 161 -4q102 -4 161 -4q37 0 68 17q-21 -110 -135 -232q-99 -96 -198 -193q-27 -28 -34 -37
q-20 -23 -30 -41h428z" />
    <glyph glyph-name="braceleft" unicode="{" horiz-adv-x="235" 
d="M221 -70l-69 -24q-8 -1 -16 -1q-49 0 -74.5 53t-25.5 119q0 71 27.5 138t71.5 109q-80 22 -119 49q10 10 20 16l69 48q11 8 26 16q4 9 -4 23.5t-17 30.5q-64 133 -64 242q0 80 48 99l84 33q1 -3 2 -7q0 -7 -3 -18q0 -4 -2 -9l-52 -28q-11 -12 -11 -41q0 -87 68 -223
q7 -13 14.5 -26t7.5 -26q0 -28 -22 -44q-16 -15 -57 -41q-6 -1 -20 -7q33 -13 110 -38q-48 -42 -77.5 -112t-29.5 -141q0 -63 24 -114q16 -33 18 -36q13 -20 31 -20t42 20v-40zM38 385z" />
    <glyph glyph-name="bar" unicode="|" horiz-adv-x="169" 
d="M121 817q-9 -127 -23 -416q-5 -155 -3 -429h-58q10 149 20 490q1 130 -8 360z" />
    <glyph glyph-name="braceright" unicode="}" horiz-adv-x="235" 
d="M221 373q-39 -27 -120 -49q45 -42 72.5 -109t27.5 -138q0 -66 -25.5 -119t-74.5 -53q-8 0 -16 1l-69 24v40q24 -20 41 -20q18 0 32 20q1 3 17 36q24 51 24 114q0 71 -29 141t-77 112q40 11 110 38q-7 2 -20 7q-24 10 -57 41q-23 16 -23 44q0 13 7.5 26t15.5 26
q68 127 68 221q0 31 -11 43l-52 28q-10 37 -3 34l84 -33q47 -19 47 -99q0 -109 -64 -242q-9 -16 -16.5 -30.5t-4.5 -23.5q16 -8 26 -16l70 -48q9 -6 20 -16zM199 385z" />
    <glyph glyph-name="asciitilde" unicode="~" horiz-adv-x="446" 
d="M404 751l-43 -75q-70 -32 -109 -32t-81 24q-16 10 -44 10q-69 0 -113 -39l46 80q35 30 102 30q29 0 45 -9q42 -24 81 -24q40 0 116 35z" />
    <glyph glyph-name="nonbreakingspace" unicode="&#xa0;" horiz-adv-x="422" 
 />
    <glyph glyph-name="cent" unicode="&#xa2;" horiz-adv-x="611" 
d="M472 94q-10 -52 -70 -76q-46 -19 -108 -19q-15 0 -29 1q-6 -38 -12 -75q-12 -53 -30 -66q-20 16 -25 47q8 34 25 101q-87 49 -116 99.5t-29 152.5q0 92 80 162q75 66 167 69q12 64 21 86q21 51 61 51q21 0 20 -20q-20 -45 -42 -113q87 -3 87 -31q0 -18 -12 -40.5
t-29 -32.5q-22 11 -67 30q-29 -86 -82 -352q24 -7 42 -7q28 0 67 16q33 14 65 28zM310 426q-67 -5 -108 -88q-34 -70 -34 -150q0 -35 19.5 -65t50.5 -42z" />
    <glyph glyph-name="sterling" unicode="&#xa3;" horiz-adv-x="654" 
d="M542 605q0 -29 -20 -29q-17 0 -51 8t-52 8q-54 0 -90 -86q-8 -19 -40 -130q11 0 41 2q26 2 42 2q77 0 77 -28q0 -43 -130 -43q-10 0 -46 1q-54 -152 -54 -171q0 -50 24 -50q12 0 34 9t35 9q28 0 81 -14.5t79 -14.5q7 0 40 13l15 -11l6 -19q-16 -22 -48.5 -41.5
t-57.5 -19.5q-29 0 -83 19.5t-83 19.5q-23 0 -73 -19.5t-81 -19.5q-40 18 -41 60q5 4 64 44q13 9 36 99q10 43 27 110q-27 -2 -86 -21q-32 19 -32 56q0 21 56 27q37 4 79 2q36 147 58 189q53 102 156 102q22 0 66 -20q52 -22 52 -43z" />
    <glyph glyph-name="section" unicode="&#xa7;" horiz-adv-x="547" 
d="M415 285q0 -31 -38 -84t-69 -53q-18 0 -33 14q51 62 51 83q0 41 -46 93q-15 15 -81 74q-24 -31 -24 -64q0 -39 59 -121q49 -69 99 -138q30 -49 30 -79q0 -64 -74 -101q-59 -30 -125 -30q-38 0 -49 8q-14 10 -14 49q0 44 31 44q1 0 29 -19q19 -12 31 -12q31 0 54 14
q27 16 27 42q0 46 -58 121q-49 61 -99 122q-30 45 -30 76q0 37 25 68q23 28 59 42q-68 47 -68 104q0 48 66 91q59 39 107 39q113 0 113 -63q-10 -24 -37 -31q-10 2 -30.5 13t-31.5 11q-34 0 -58 -12q-29 -15 -29 -44q0 -38 65 -90q48 -38 97 -76q51 -47 51 -91z" />
    <glyph glyph-name="dieresis" unicode="&#xa8;" horiz-adv-x="355" 
d="M312 753q-10 -37 -37 -51q-26 0 -54 19t-28 45q19 27 62 41q40 -16 57 -54zM105 756q0 -17 -24.5 -35.5t-43.5 -18.5q-12 0 -25 13t-18 25q0 19 16 44q19 29 40 29q16 -7 34 -23q21 -19 21 -34z" />
    <glyph glyph-name="copyright" unicode="&#xa9;" horiz-adv-x="957" 
d="M787 334q0 -146 -100.5 -248.5t-246.5 -102.5t-247 102.5t-101 248.5q0 147 100.5 249t247.5 102q146 0 246.5 -102.5t100.5 -248.5zM711 334q0 122 -75 201.5t-196 79.5t-196.5 -79.5t-75.5 -201.5t75.5 -201.5t196.5 -79.5q120 0 195.5 80t75.5 201zM628 271
q-16 -71 -63 -115t-115 -44q-94 0 -154 65q-57 62 -57 157q0 96 56 158.5t152 62.5q71 0 119 -40q52 -42 62 -115h-68q-10 41 -41.5 66.5t-70.5 25.5q-61 0 -101 -47t-40 -110t41.5 -112t101.5 -49q40 0 71 27.5t38 69.5h69z" />
    <glyph glyph-name="registered" unicode="&#xae;" horiz-adv-x="957" 
d="M787 334q0 -146 -100.5 -248.5t-246.5 -102.5t-247 102.5t-101 248.5q0 147 100.5 249t247.5 102q146 0 246.5 -102.5t100.5 -248.5zM711 334q0 122 -75 201.5t-196 79.5t-196.5 -79.5t-75.5 -201.5t75.5 -201.5t196.5 -79.5q120 0 195.5 80t75.5 201zM623 125h-82
l-110 174h-58v-174h-69v418h160q140 0 140 -119q0 -104 -96 -123zM535 426q0 54 -84 54h-78v-119h58q50 0 72 10q32 14 32 55z" />
    <glyph glyph-name="degree" unicode="&#xb0;" horiz-adv-x="289" 
d="M203 725q0 -31 -24 -53.5t-56 -22.5q-31 0 -55.5 22.5t-24.5 53.5q0 32 24.5 54t55.5 22q32 0 56 -22t24 -54zM171 724q0 18 -14 31t-33 13t-33.5 -13t-14.5 -31t14.5 -30.5t33.5 -12.5t33 12.5t14 30.5z" />
    <glyph glyph-name="acute" unicode="&#xb4;" horiz-adv-x="355" 
d="M254 798q0 -27 -84 -73q-40 -22 -107 -52q-21 -1 -21 19q0 15 74 74q71 57 92 65q34 -9 46 -33z" />
    <glyph glyph-name="mu" unicode="&#xb5;" horiz-adv-x="748" 
d="M713 49l-199 -66q-3 26 -14 69q-118 -62 -188 -62q-39 0 -71 10v-244q-6 -10 -6 -44q1 -41 0 -46l-199 66l23 28q25 -8 39 -8q15 0 35 30l-2 677q0 12 -11 20t-24 8t-36 -7l-24 27l199 73v-384q3 -56 48 -97.5t101 -41.5q52 0 85 23q38 27 37 77l-4 380q39 13 116 43v-76
q0 -32 -5 -96t-5 -97q0 -10 7 -212q1 -12 12 -21t23 -9q15 0 40 8z" />
    <glyph glyph-name="paragraph" unicode="&#xb6;" horiz-adv-x="792" 
d="M679 365l-43 -75q-13 -21 -61 -58t-87 -53v-361h-41v339q-44 -22 -91 -41v-298h-42v282q-28 -10 -102 -29l26 -43l-151 21l101 136l9 -68q39 10 117 36l2 144q-80 0 -161 47q-56 32 -90 81.5t-34 105.5q0 49 28 97l43 74q31 54 105 82q67 26 156 26q143 0 240 -56
q58 -33 89 -97q29 -58 29 -130q0 -89 -42 -162zM666 389q20 51 20 97q0 120 -125 193q-22 11 -73 37v-480q34 14 90 58q67 52 88 95zM447 721l-88 12l-3 -563l91 44v507zM313 403v332q-152 -1 -227 -78q-9 -29 -9 -59q0 -58 32.5 -106.5t88.5 -73.5q38 -17 115 -15z" />
    <glyph glyph-name="Agrave" unicode="&#xc0;" horiz-adv-x="820" 
d="M457 906l-41 -71q-27 3 -78 50q-36 35 -73 69l41 70q3 -3 55 -54q39 -39 64 -54q14 -8 32 -10zM736 23l-3 -25q-21 4 -77 1q-79 -3 -77 -3q-32 -6 -75 -14q-5 -1 -8 0t-1.5 6t-2.5 16l35 7q-8 70 -26 165q-22 119 -39 142q-5 7 -146 7q-35 0 -59 -3q-15 -61 -35 -187
q-1 -34 6 -87q10 -29 70 -41l-3 -20h-15q-12 0 -122 13q-14 2 -84 -11q-16 -2 -33 -3l-6 21q16 2 47 11q231 609 231 737q0 28 -40 25q-19 -1 -24 -1q-15 0 -32 6q2 14 12 21q25 0 76.5 -3.5t75.5 -3.5t73.5 7.5t78.5 7.5v-18q-17 -5 -50 -12q-11 0 -22 -1q0 -13 19 -90
q6 -29 24 -94l78 -310q68 -250 107 -263q3 -1 47 -3zM441 392l-12 34q-10 37 -41 139l-46 136q-44 -136 -69 -309h168z" />
    <glyph glyph-name="Aacute" unicode="&#xc1;" horiz-adv-x="820" 
d="M469 977l-44 -76q-56 -36 -145 -84l43 75q82 44 146 85zM736 23l-3 -25q-21 4 -77 1q-79 -3 -77 -3q-32 -6 -75 -14q-5 -1 -8 0t-1.5 6t-2.5 16l35 7q-8 70 -26 165q-22 119 -39 142q-5 7 -146 7q-35 0 -59 -3q-15 -61 -35 -187q-1 -34 6 -87q10 -29 70 -41l-3 -20h-15
q-12 0 -122 13q-14 2 -84 -11q-16 -2 -33 -3l-6 21q16 2 47 11q231 609 231 737q0 28 -40 25q-19 -1 -24 -1q-15 0 -32 6q2 14 12 21q25 0 76.5 -3.5t75.5 -3.5t73.5 7.5t78.5 7.5v-18q-17 -5 -50 -12q-11 0 -22 -1q0 -13 19 -90q6 -29 24 -94l78 -310q68 -250 107 -263
q3 -1 47 -3zM441 392l-12 34q-10 37 -41 139l-46 136q-44 -136 -69 -309h168z" />
    <glyph glyph-name="Acircumflex" unicode="&#xc2;" horiz-adv-x="820" 
d="M486 947l-40 -69q-27 -48 -76 -48q-24 0 -47 14l-2 1q-22 13 -22 33q0 14 10 30l40 70q24 41 68 59l11 19q33 -1 52 -19t19 -44q0 -23 -13 -46zM736 23l-3 -25q-21 4 -77 1q-79 -3 -77 -3q-32 -6 -75 -14q-5 -1 -8 0t-1.5 6t-2.5 16l35 7q-8 70 -26 165q-22 119 -39 142
q-5 7 -146 7q-35 0 -59 -3q-15 -61 -35 -187q-1 -34 6 -87q10 -29 70 -41l-3 -20h-15q-12 0 -122 13q-14 2 -84 -11q-16 -2 -33 -3l-6 21q16 2 47 11q231 609 231 737q0 28 -40 25q-19 -1 -24 -1q-15 0 -32 6q2 14 12 21q25 0 76.5 -3.5t75.5 -3.5t73.5 7.5t78.5 7.5v-18
q-17 -5 -50 -12q-11 0 -22 -1q0 -13 19 -90q6 -29 24 -94l78 -310q68 -250 107 -263q3 -1 47 -3zM455 918q4 40 -25 58q-10 6 -24 8l-8 -14q-24 0 -55 -28q1 -18 18 -28q22 -12 45 -12q27 0 49 16zM441 392l-12 34q-10 37 -41 139l-46 136q-44 -136 -69 -309h168z" />
    <glyph glyph-name="Atilde" unicode="&#xc3;" horiz-adv-x="820" 
d="M555 1003l-43 -75q-28 -13 -50 -44q-34 -49 -42 -56q-14 22 -51 49q-41 29 -64 29q-11 0 -15 -8l-5 -7v-1l-40 -70l-4 2q5 11 13 26l40 69q5 9 16.5 27t16 25.5t14.5 7.5q22 0 64 -29q39 -26 54 -46l41 55q23 31 55 46zM736 23l-3 -25q-21 4 -77 1q-79 -3 -77 -3
q-32 -6 -75 -14q-5 -1 -8 0t-1.5 6t-2.5 16l35 7q-8 70 -26 165q-22 119 -39 142q-5 7 -146 7q-35 0 -59 -3q-15 -61 -35 -187q-1 -34 6 -87q10 -29 70 -41l-3 -20h-15q-12 0 -122 13q-14 2 -84 -11q-16 -2 -33 -3l-6 21q16 2 47 11q231 609 231 737q0 28 -40 25
q-19 -1 -24 -1q-15 0 -32 6q2 14 12 21q25 0 76.5 -3.5t75.5 -3.5t73.5 7.5t78.5 7.5v-18q-17 -5 -50 -12q-11 0 -22 -1q0 -13 19 -90q6 -29 24 -94l78 -310q68 -250 107 -263q3 -1 47 -3zM441 392l-12 34q-10 37 -41 139l-46 136q-44 -136 -69 -309h168z" />
    <glyph glyph-name="Adieresis" unicode="&#xc4;" horiz-adv-x="820" 
d="M686 822l-41 -71q-11 16 -57 65l41 71q31 -31 57 -65zM156 822l-41 -71l-26 34q-16 20 -34 31l40 70q20 -13 36 -33q13 -16 25 -31zM736 23l-3 -25q-21 4 -77 1q-79 -3 -77 -3q-32 -6 -75 -14q-5 -1 -8 0t-1.5 6t-2.5 16l35 7q-8 70 -26 165q-22 119 -39 142q-5 7 -146 7
q-35 0 -59 -3q-15 -61 -35 -187q-1 -34 6 -87q10 -29 70 -41l-3 -20h-15q-12 0 -122 13q-14 2 -84 -11q-16 -2 -33 -3l-6 21q16 2 47 11q231 609 231 737q0 28 -40 25q-19 -1 -24 -1q-15 0 -32 6q2 14 12 21q25 0 76.5 -3.5t75.5 -3.5t73.5 7.5t78.5 7.5v-18q-17 -5 -50 -12
q-11 0 -22 -1q0 -13 19 -90q6 -29 24 -94l78 -310q68 -250 107 -263q3 -1 47 -3zM441 392l-12 34q-10 37 -41 139l-46 136q-44 -136 -69 -309h168z" />
    <glyph glyph-name="Aring" unicode="&#xc5;" horiz-adv-x="820" 
d="M459 938l-40 -70q-11 -18 -53 -18q-53 0 -85 18l-2 2q-20 11 -20 25q0 8 6 17l40 69q13 23 66 58l12 21l12 -6l2 2l-1 -2q75 -35 75 -76q0 -19 -12 -40zM736 23l-3 -25q-21 4 -77 1q-79 -3 -77 -3q-32 -6 -75 -14q-5 -1 -8 0t-1.5 6t-2.5 16l35 7q-8 70 -26 165
q-22 119 -39 142q-5 7 -146 7q-35 0 -59 -3q-15 -61 -35 -187q-1 -34 6 -87q10 -29 70 -41l-3 -20h-15q-12 0 -122 13q-14 2 -84 -11q-16 -2 -33 -3l-6 21q16 2 47 11q231 609 231 737q0 28 -40 25q-19 -1 -24 -1q-15 0 -32 6q2 14 12 21q25 0 76.5 -3.5t75.5 -3.5t73.5 7.5
t78.5 7.5v-18q-17 -5 -50 -12q-11 0 -22 -1q0 -13 19 -90q6 -29 24 -94l78 -310q68 -250 107 -263q3 -1 47 -3zM426 923q-6 26 -42 47q-10 6 -28 14l-3 -5q-14 -8 -46 -30q5 -6 12 -10q32 -18 84 -18q13 0 23 2zM441 392l-12 34q-10 37 -41 139l-46 136q-44 -136 -69 -309
h168z" />
    <glyph glyph-name="AE" unicode="&#xc6;" horiz-adv-x="1244" 
d="M1181 88l-17 -36l-30 -21q-56 -35 -132 -35q-55 0 -167.5 2t-169.5 2q-8 8 -8 21q0 8 3.5 24.5t3.5 23.5q0 78 6 265q-14 29 -53 29h-149q-34 0 -88 -5q-44 -5 -87 -9q-13 -1 -63 -116l-103 -234q-31 -9 -64 -28h-54q64 98 132 233q57 117 114 233l164 332q17 35 39 134
q25 0 124 -5t124 -5h416v-147q-25 -18 -59 -34q-15 82 -28.5 100.5t-57.5 21.5h-78q-7 0 -64 -3q-39 -2 -65 2v-329h317q-32 -24 -74 -49q-51 -30 -67 -28l-170 12q-10 -46 -10 -111q1 105 1 -112q0 -71 9 -151h369zM661 832l-126 -8l-196 -375l318 3z" />
    <glyph glyph-name="Ccedilla" unicode="&#xc7;" horiz-adv-x="601" 
d="M540 810q-41 -97 -49 -156q0 -7 -3 -19q-3 -6 -16 -20q-5 70 -55 108q-45 33 -110 33q-78 0 -122 -73q-36 -62 -36 -150v-115q0 -123 61 -241q73 -139 180 -139q89 0 119 67l23 -18q-25 -43 -75.5 -74t-103.5 -40q6 -13 2 -21l-40 -70q-9 -15 -37 -25q-38 -13 -43 -16
l-24 -41q1 20 6 28l40 70q8 15 41 25l-35 40l5 9q-242 33 -242 429q0 155 84 275q95 133 244 133q22 0 65 -4.5t65 -4.5q20 0 56 10z" />
    <glyph glyph-name="Egrave" unicode="&#xc8;" horiz-adv-x="616" 
d="M347 906l-40 -71q-36 9 -77 41q-60 47 -82 59l40 70l4 -2q26 -15 59 -42.5t50.5 -37.5t45.5 -17zM562 108l-51 -122q-21 -5 -83 -5q-40 0 -120 9.5t-121 9.5q-52 0 -137 -19l-4 21q21 6 58 17q24 56 24 340q0 110 -7 227q-11 179 -33 184q-10 2 -31 1q-5 0 -31 -1l-3 26
l258 -1q37 0 119 5.5t126 5.5q-44 -102 -41 -167h-21q-16 65 -80 98q-53 27 -126 27q-11 0 -18 -1q-10 -61 -10 -173q0 -46 3 -158q113 -7 253 52l4 -16q-18 -71 -11 -150q-20 7 -23 25q-4 31 -85 46q-53 9 -117 9q-12 0 -21 -2v-146q0 -119 8 -166q4 -23 40 -23
q241 0 264 62l17 -3v-12z" />
    <glyph glyph-name="Eacute" unicode="&#xc9;" horiz-adv-x="616" 
d="M410 999l-49 -87q-31 -34 -120 -52q-107 -21 -137 -37l43 75q27 14 85 26q72 15 96 23q53 18 82 52zM562 108l-51 -122q-21 -5 -83 -5q-40 0 -120 9.5t-121 9.5q-52 0 -137 -19l-4 21q21 6 58 17q24 56 24 340q0 110 -7 227q-11 179 -33 184q-10 2 -31 1q-5 0 -31 -1
l-3 26l258 -1q37 0 119 5.5t126 5.5q-44 -102 -41 -167h-21q-16 65 -80 98q-53 27 -126 27q-11 0 -18 -1q-10 -61 -10 -173q0 -46 3 -158q113 -7 253 52l4 -16q-18 -71 -11 -150q-20 7 -23 25q-4 31 -85 46q-53 9 -117 9q-12 0 -21 -2v-146q0 -119 8 -166q4 -23 40 -23
q241 0 264 62l17 -3v-12z" />
    <glyph glyph-name="Ecircumflex" unicode="&#xca;" horiz-adv-x="616" 
d="M511 971l-46 -80q-57 -49 -110 -49q-36 0 -75 22q-72 42 -117 42q-57 0 -91 -60l40 70l-4 2q35 59 92 59q44 0 116 -41q39 -23 74 -23q55 0 121 58zM562 108l-51 -122q-21 -5 -83 -5q-40 0 -120 9.5t-121 9.5q-52 0 -137 -19l-4 21q21 6 58 17q24 56 24 340q0 110 -7 227
q-11 179 -33 184q-10 2 -31 1q-5 0 -31 -1l-3 26l258 -1q37 0 119 5.5t126 5.5q-44 -102 -41 -167h-21q-16 65 -80 98q-53 27 -126 27q-11 0 -18 -1q-10 -61 -10 -173q0 -46 3 -158q113 -7 253 52l4 -16q-18 -71 -11 -150q-20 7 -23 25q-4 31 -85 46q-53 9 -117 9
q-12 0 -21 -2v-146q0 -119 8 -166q4 -23 40 -23q241 0 264 62l17 -3v-12z" />
    <glyph glyph-name="Edieresis" unicode="&#xcb;" horiz-adv-x="616" 
d="M386 906l-40 -71q-30 9 -55 58l42 72q21 -44 38 -54q4 -2 15 -5zM201 905l-41 -70q-17 14 -50 46l41 71q2 -3 50 -47zM562 108l-51 -122q-21 -5 -83 -5q-40 0 -120 9.5t-121 9.5q-52 0 -137 -19l-4 21q21 6 58 17q24 56 24 340q0 110 -7 227q-11 179 -33 184q-10 2 -31 1
q-5 0 -31 -1l-3 26l258 -1q37 0 119 5.5t126 5.5q-44 -102 -41 -167h-21q-16 65 -80 98q-53 27 -126 27q-11 0 -18 -1q-10 -61 -10 -173q0 -46 3 -158q113 -7 253 52l4 -16q-18 -71 -11 -150q-20 7 -23 25q-4 31 -85 46q-53 9 -117 9q-12 0 -21 -2v-146q0 -119 8 -166
q4 -23 40 -23q241 0 264 62l17 -3v-12z" />
    <glyph glyph-name="Igrave" unicode="&#xcc;" horiz-adv-x="336" 
d="M229 902l-41 -70q-43 40 -127 78l40 70q86 -39 128 -78zM291 12v-21q-145 8 -151 8q-17 0 -51.5 -5t-51.5 -5h-13l-4 18q7 1 28 5q12 2 19 5q4 3 8 69q2 36 5 83q13 213 13 400q0 83 -16 207q-14 4 -54 13v21h11q21 0 62.5 -7t62.5 -7q6 0 119 10l-2 -5q2 -5 -3 -16
q-8 -2 -47 -7q-7 -18 -13 -104q-5 -73 -5 -108v-348q0 -130 19 -200q24 -1 64 -6z" />
    <glyph glyph-name="Iacute" unicode="&#xcd;" horiz-adv-x="336" 
d="M254 994l-44 -77q-44 -31 -137 -85l43 75q23 10 138 87zM291 12v-21q-145 8 -151 8q-17 0 -51.5 -5t-51.5 -5h-13l-4 18q7 1 28 5q12 2 19 5q4 3 8 69q2 36 5 83q13 213 13 400q0 83 -16 207q-14 4 -54 13v21h11q21 0 62.5 -7t62.5 -7q6 0 119 10l-2 -5q2 -5 -3 -16
q-8 -2 -47 -7q-7 -18 -13 -104q-5 -73 -5 -108v-348q0 -130 19 -200q24 -1 64 -6z" />
    <glyph glyph-name="Icircumflex" unicode="&#xce;" horiz-adv-x="336" 
d="M282 913l-40 -70q-63 32 -93 73q-43 -20 -141 -85l45 79q26 20 70 43q50 26 66 37q25 -39 75 -68zM291 12v-21q-145 8 -151 8q-17 0 -51.5 -5t-51.5 -5h-13l-4 18q7 1 28 5q12 2 19 5q4 3 8 69q2 36 5 83q13 213 13 400q0 83 -16 207q-14 4 -54 13v21h11q21 0 62.5 -7
t62.5 -7q6 0 119 10l-2 -5q2 -5 -3 -16q-8 -2 -47 -7q-7 -18 -13 -104q-5 -73 -5 -108v-348q0 -130 19 -200q24 -1 64 -6z" />
    <glyph glyph-name="Idieresis" unicode="&#xcf;" horiz-adv-x="336" 
d="M312 923l-40 -71q-42 8 -81 50l41 71q22 -25 43 -37q16 -9 37 -13zM123 934l-40 -70q-17 13 -52 36q-10 6 -23 9l40 71q9 -3 75 -46zM291 12v-21q-145 8 -151 8q-17 0 -51.5 -5t-51.5 -5h-13l-4 18q7 1 28 5q12 2 19 5q4 3 8 69q2 36 5 83q13 213 13 400q0 83 -16 207
q-14 4 -54 13v21h11q21 0 62.5 -7t62.5 -7q6 0 119 10l-2 -5q2 -5 -3 -16q-8 -2 -47 -7q-7 -18 -13 -104q-5 -73 -5 -108v-348q0 -130 19 -200q24 -1 64 -6z" />
    <glyph glyph-name="Eth" unicode="&#xd0;" horiz-adv-x="808" 
d="M731 404q0 -178 -101 -295q-107 -123 -283 -123q-35 0 -105.5 7t-106.5 7q-17 0 -98 -19l-7 21l58 19q25 172 27 444l-4 2q-28 17 -51 17q-34 0 -59 -39l-4 2l40 70q23 39 58 39q9 0 19 -3q-5 207 -31 226q-10 8 -48 12l3 20h22q17 0 50.5 -5.5t50.5 -5.5q27 0 80 7t80 7
q126 0 204 -39q92 -46 151 -158q55 -105 55 -213zM580 423q0 127 -77 238q-85 123 -204 123q-39 0 -59 -17q-6 -6 -13 -95q-6 -78 -6 -110v-68q23 -11 45 -11q35 0 70 28q30 27 59 53l-46 -80q-28 -24 -55 -49q-36 -27 -73 -23v-41q0 -39 3 -109q1 -43 3 -86q3 -55 11 -86
q20 -78 104 -78q127 0 190 148q48 112 48 263z" />
    <glyph glyph-name="Ntilde" unicode="&#xd1;" horiz-adv-x="875" 
d="M653 1035l-45 -79q-55 -45 -86 -62q-51 -30 -97 -30q-44 0 -89 26l-2 2q-13 7 -29.5 22.5t-26.5 21.5q-4 2 -10 2q-20 0 -66 -34q-62 -48 -65 -50l43 76q30 22 60 45q44 34 65 34q7 0 12 -3q13 -8 29.5 -23.5t27.5 -21.5q44 -25 87 -25q47 0 99 30q33 19 93 69zM795 790
q-22 -4 -69 -10q-36 -174 -36 -599q0 -98 2 -195q-44 57 -128 162q-86 99 -249 303q-42 59 -128 176v-46q0 -60 26 -296q26 -248 37 -256q17 -10 68 -9l-3 -25q-81 5 -92 5q-46 0 -165 -13v23l36 3l16 9q28 131 28 334v333q0 26 -37 56.5t-70 29.5v23q112 0 201 16
q71 -141 190 -303q61 -84 220 -281q3 62 3 118q0 237 -49 423l-10 4l-70 1v28q90 -4 94 -4q30 0 89.5 8t92.5 8z" />
    <glyph glyph-name="Ograve" unicode="&#xd2;" horiz-adv-x="797" 
d="M463 933l-40 -70q-36 13 -80 41q-39 27 -79 53l40 70q35 -24 101 -67q26 -15 58 -27zM722 404q0 -170 -85 -287q-96 -130 -261 -130q-347 0 -347 424q0 165 98 279q103 119 266 119q160 0 250 -128q79 -113 79 -277zM576 404q0 122 -50 233q-63 138 -166 138t-150 -133
q-33 -93 -33 -226q0 -137 46 -249q61 -146 173 -146q180 0 180 383z" />
    <glyph glyph-name="Oacute" unicode="&#xd3;" horiz-adv-x="797" 
d="M504 973l-43 -74q-117 -52 -224 -68l41 72q102 15 226 70zM722 404q0 -170 -85 -287q-96 -130 -261 -130q-347 0 -347 424q0 165 98 279q103 119 266 119q160 0 250 -128q79 -113 79 -277zM576 404q0 122 -50 233q-63 138 -166 138t-150 -133q-33 -93 -33 -226
q0 -137 46 -249q61 -146 173 -146q180 0 180 383z" />
    <glyph glyph-name="Ocircumflex" unicode="&#xd4;" horiz-adv-x="797" 
d="M528 893l-40 -71q-47 11 -58 14q-32 9 -58 24l-2 2q-16 16 -45 34q-7 1 -60 -40l-67 -51l44 77l60 46q53 40 59 40q5 -1 22 -16q20 -18 27 -21q34 -20 118 -38zM722 404q0 -170 -85 -287q-96 -130 -261 -130q-347 0 -347 424q0 165 98 279q103 119 266 119
q160 0 250 -128q79 -113 79 -277zM576 404q0 122 -50 233q-63 138 -166 138t-150 -133q-33 -93 -33 -226q0 -137 46 -249q61 -146 173 -146q180 0 180 383z" />
    <glyph glyph-name="Otilde" unicode="&#xd5;" horiz-adv-x="797" 
d="M595 979l-42 -74q-42 -21 -83 -41q-59 -29 -91 -29q-16 0 -27 6.5t-28.5 24.5t-30.5 25q-7 4 -15 4q-19 0 -46 -26t-53 -51l45 79q23 22 47.5 45.5t43.5 23.5q9 0 18.5 -5.5t40.5 -35.5q20 -20 42 -20q31 0 91 30zM722 404q0 -170 -85 -287q-96 -130 -261 -130
q-347 0 -347 424q0 165 98 279q103 119 266 119q160 0 250 -128q79 -113 79 -277zM576 404q0 122 -50 233q-63 138 -166 138t-150 -133q-33 -93 -33 -226q0 -137 46 -249q61 -146 173 -146q180 0 180 383z" />
    <glyph glyph-name="Odieresis" unicode="&#xd6;" horiz-adv-x="797" 
d="M697 824l-40 -70q-28 20 -31 23q-14 12 -27 29l41 71q18 -25 57 -53zM172 818l-41 -71q-9 12 -28.5 27t-27.5 26l41 71q10 -13 29.5 -28.5t26.5 -24.5zM722 404q0 -170 -85 -287q-96 -130 -261 -130q-347 0 -347 424q0 165 98 279q103 119 266 119q160 0 250 -128
q79 -113 79 -277zM576 404q0 122 -50 233q-63 138 -166 138t-150 -133q-33 -93 -33 -226q0 -137 46 -249q61 -146 173 -146q180 0 180 383z" />
    <glyph glyph-name="Oslash" unicode="&#xd8;" horiz-adv-x="671" 
d="M597 327q0 -126 -70 -212q-75 -93 -198 -93q-38 0 -71 15q-27 -68 -31 -76q-27 -54 -51 -54q-29 0 -39 28q10 28 31 66q17 33 34 65q-105 79 -105 238q0 136 71 224q77 96 209 96q39 0 70 -12q46 112 70 112q27 0 38 -39q-13 -21 -52 -105q94 -74 94 -253zM512 314
q0 123 -48 183q-97 -202 -173 -377q29 -15 66 -15q77 0 119 67q36 57 36 142zM414 536q-26 12 -57 12q-82 0 -130 -73q-41 -65 -41 -155q0 -94 60 -162q79 170 168 378z" />
    <glyph glyph-name="Ugrave" unicode="&#xd9;" horiz-adv-x="808" 
d="M504 900l-40 -70q-25 8 -51.5 25t-51.5 33q-16 10 -75 32q-46 18 -65 36l41 71q14 -14 28.5 -22.5t52 -22t56.5 -23.5q21 -15 63 -41q17 -10 42 -18zM731 791q-33 -2 -45 -10q-29 -235 -29 -634q0 -60 7 -81q11 -41 56 -41v-26q-33 5 -43 5q-71 0 -130 -23l-7 9l4 114
q-98 -73 -118 -83q-59 -33 -143 -33q-119 0 -164 82q-33 59 -33 181q0 19 1 64q1 41 1 60q0 332 -27 393l-29 6l4 30q27 -10 96 -10q22 0 71 6.5t77 5.5v-35l-45 2l-6 -1q-3 0 -5 -0.5t-6 -20.5q-24 -116 -24 -287q0 -20 -1 -60v-59q0 -129 35 -187q45 -74 163 -74
q162 0 162 153q0 50 5 150t5 151q0 32 -4 96t-4 96q0 48 -38 48q2 0 -62 -5v32q119 -5 123 -5q31 0 76 7q66 12 75 13z" />
    <glyph glyph-name="Uacute" unicode="&#xda;" horiz-adv-x="808" 
d="M507 1011l-43 -75q-59 -29 -173 -75l42 74q109 43 174 76zM731 791q-33 -2 -45 -10q-29 -235 -29 -634q0 -60 7 -81q11 -41 56 -41v-26q-33 5 -43 5q-71 0 -130 -23l-7 9l4 114q-98 -73 -118 -83q-59 -33 -143 -33q-119 0 -164 82q-33 59 -33 181q0 19 1 64q1 41 1 60
q0 332 -27 393l-29 6l4 30q27 -10 96 -10q22 0 71 6.5t77 5.5v-35l-45 2l-6 -1q-3 0 -5 -0.5t-6 -20.5q-24 -116 -24 -287q0 -20 -1 -60v-59q0 -129 35 -187q45 -74 163 -74q162 0 162 153q0 50 5 150t5 151q0 32 -4 96t-4 96q0 48 -38 48q2 0 -62 -5v32q119 -5 123 -5
q31 0 76 7q66 12 75 13z" />
    <glyph glyph-name="Ucircumflex" unicode="&#xdb;" horiz-adv-x="808" 
d="M555 918l-40 -70q-73 33 -120 59q-11 13 -34 26q-4 1 -27 -16t-28 -20q-28 -13 -56 -27q-33 -14 -67 -19l41 72q31 4 63 19q28 13 55 27q6 2 30 20q21 16 25 16q6 -1 18 -12q16 -14 22 -17q42 -25 118 -58zM731 791q-33 -2 -45 -10q-29 -235 -29 -634q0 -60 7 -81
q11 -41 56 -41v-26q-33 5 -43 5q-71 0 -130 -23l-7 9l4 114q-98 -73 -118 -83q-59 -33 -143 -33q-119 0 -164 82q-33 59 -33 181q0 19 1 64q1 41 1 60q0 332 -27 393l-29 6l4 30q27 -10 96 -10q22 0 71 6.5t77 5.5v-35l-45 2l-6 -1q-3 0 -5 -0.5t-6 -20.5q-24 -116 -24 -287
q0 -20 -1 -60v-59q0 -129 35 -187q45 -74 163 -74q162 0 162 153q0 50 5 150t5 151q0 32 -4 96t-4 96q0 48 -38 48q2 0 -62 -5v32q119 -5 123 -5q31 0 76 7q66 12 75 13z" />
    <glyph glyph-name="Udieresis" unicode="&#xdc;" horiz-adv-x="808" 
d="M519 915l-40 -70l-4 2q-16 16 -54 45q-5 3 -16 7l40 70q15 -6 38 -26q27 -23 36 -28zM280 921l-40 -70q-41 21 -83 57l41 70q34 -30 71 -52q3 -1 11 -5zM731 791q-33 -2 -45 -10q-29 -235 -29 -634q0 -60 7 -81q11 -41 56 -41v-26q-33 5 -43 5q-71 0 -130 -23l-7 9l4 114
q-98 -73 -118 -83q-59 -33 -143 -33q-119 0 -164 82q-33 59 -33 181q0 19 1 64q1 41 1 60q0 332 -27 393l-29 6l4 30q27 -10 96 -10q22 0 71 6.5t77 5.5v-35l-45 2l-6 -1q-3 0 -5 -0.5t-6 -20.5q-24 -116 -24 -287q0 -20 -1 -60v-59q0 -129 35 -187q45 -74 163 -74
q162 0 162 153q0 50 5 150t5 151q0 32 -4 96t-4 96q0 48 -38 48q2 0 -62 -5v32q119 -5 123 -5q31 0 76 7q66 12 75 13z" />
    <glyph glyph-name="Thorn" unicode="&#xde;" horiz-adv-x="673" 
d="M606 422l-40 -70q-38 -65 -178 -109q-18 -3 -57 -11q14 -18 36 -31q12 -7 30 -13l-40 -70q-27 8 -52 29q-28 24 -28 46q0 8 4 15l40 70q10 17 47 25l56 12q110 34 152 75q8 32 8 70q0 83 -34 160q-37 84 -101 126q-41 25 -56 29q-29 9 -96 9q-35 0 -47.5 -17.5
t-12.5 -55.5q0 -65 -2 -193.5t-2 -192.5q0 -173 32 -299q11 -5 32 -7q26 -3 40 -6v-18q-23 0 -68 3q-41 3 -62 3q-56 0 -160 -28l-4 22q22 3 59 19q19 70 19 196v148q0 80 -12 228q-15 184 -33 192q-10 4 -51 4v16l8 6q87 -5 94 -5q37 0 103 7t103 7q66 2 87 1q24 -2 68 -14
q67 -18 108 -98q37 -72 37 -160q0 -73 -27 -120z" />
    <glyph glyph-name="germandbls" unicode="&#xdf;" horiz-adv-x="789" 
d="M692 242q0 -91 -101 -172q-95 -78 -187 -78h-222q-34 0 -39 39q-3 32 -6 63v704q-8 11 -32.5 12.5t-46.5 2.5q-18 1 -40 8q82 46 169 60q55 8 179 8q261 0 261 -166q0 -72 -63 -136q-19 -20 -121 -96q249 -78 249 -249zM563 198q0 92 -49 139q-35 35 -124 63
q-35 11 -113 36v29q82 11 152 67q78 61 78 133q0 90 -74 126q-53 26 -159 26q-14 0 -26 -3q4 -23 4 -77q0 -93 -4 -278t-4 -278q0 -80 31 -106q28 -25 111 -25q177 0 177 148z" />
    <glyph glyph-name="agrave" unicode="&#xe0;" 
d="M338 600q-26 20 -90 51q-58 28 -83 52l-42 66q32 -30 89 -52q62 -24 81 -39zM478 51q-33 -10 -65 -21q-36 -12 -57 -30h-22q-5 51 0 76h-6q-8 0 -27.5 -9.5t-54.5 -27.5q-69 -39 -119 -39q-98 0 -98 93q0 79 8 100q22 57 81 109q79 70 173 68q20 -1 42 -3q2 84 -11 107
q-20 33 -110 33q-12 0 -68 -18q-63 -21 -80 -37q-11 6 -23 22q38 41 88 72q23 14 70 25q43 10 70 10q59 0 106 -30q55 -36 55 -97v-334q0 -37 4 -43.5t39 -3.5zM334 161l-1 143q-11 6 -30 6q-9 0 -24 -1q-73 1 -122 -64q-42 -56 -39 -109l1 -37l25 -26q152 24 190 88z" />
    <glyph glyph-name="aacute" unicode="&#xe1;" 
d="M363 752l-42 -66q-25 -24 -83 -52q-64 -31 -90 -51l45 78q19 15 81 39q57 22 89 52zM478 51q-33 -10 -65 -21q-36 -12 -57 -30h-22q-5 51 0 76h-6q-8 0 -27.5 -9.5t-54.5 -27.5q-69 -39 -119 -39q-98 0 -98 93q0 79 8 100q22 57 81 109q79 70 173 68q20 -1 42 -3
q2 84 -11 107q-20 33 -110 33q-12 0 -68 -18q-63 -21 -80 -37q-11 6 -23 22q38 41 88 72q23 14 70 25q43 10 70 10q59 0 106 -30q55 -36 55 -97v-334q0 -37 4 -43.5t39 -3.5zM334 161l-1 143q-11 6 -30 6q-9 0 -24 -1q-73 1 -122 -64q-42 -56 -39 -109l1 -37l25 -26
q152 24 190 88z" />
    <glyph glyph-name="acircumflex" unicode="&#xe2;" 
d="M386 675l-41 -71q-36 6 -65 34q-24 28 -48 57l-6 -12q-17 -29 -51.5 -57t-68.5 -55l45 79q29 21 59 44t45 49l15 26q1 -2 36 -46q19 -24 37 -35q15 -9 43 -13zM478 51q-33 -10 -65 -21q-36 -12 -57 -30h-22q-5 51 0 76h-6q-8 0 -27.5 -9.5t-54.5 -27.5q-69 -39 -119 -39
q-98 0 -98 93q0 79 8 100q22 57 81 109q79 69 173 68q20 -1 42 -3q2 84 -11 107q-20 33 -110 33q-12 0 -68 -18q-63 -21 -80 -37q-11 6 -23 22q38 41 88 72q23 14 70 25q43 10 70 10q59 0 106 -30q55 -36 55 -97v-334q0 -37 4 -43.5t39 -3.5zM334 161l-1 143q-11 6 -30 6
q-9 0 -24 -1q-73 1 -122 -64q-42 -56 -39 -109l1 -37l25 -26q152 24 190 88z" />
    <glyph glyph-name="atilde" unicode="&#xe3;" 
d="M425 721l-41 -54q-24 -16 -47 -32q-28 -16 -53 -16q-27 0 -57 17q-44 25 -80 25q-19 0 -31 -8l-72 -56q17 62 41 84l12 11q36 33 95 33q41 0 71 -17q41 -24 73 -24q33 0 89 37zM478 51q-33 -10 -65 -21q-36 -12 -57 -30h-22q-5 51 0 76h-6q-8 0 -27.5 -9.5t-54.5 -27.5
q-69 -39 -119 -39q-98 0 -98 93q0 79 8 100q22 57 81 109q79 69 173 68q20 -1 42 -3q2 84 -11 107q-20 33 -110 33q-12 0 -68 -18q-63 -21 -80 -37q-11 6 -23 22q38 41 88 72q23 14 70 25q43 10 70 10q59 0 106 -30q55 -36 55 -97v-334q0 -37 4 -43.5t39 -3.5zM334 161
l-1 143q-11 6 -30 6q-9 0 -24 -1q-73 1 -122 -64q-42 -56 -39 -109l1 -37l25 -26q152 24 190 88z" />
    <glyph glyph-name="adieresis" unicode="&#xe4;" 
d="M368 680l-40 -70l-5 3q-48 28 -65 48l41 71q19 -24 62 -49zM211 684l-40 -69l-3 2q-21 13 -66 41l40 69q23 -15 69 -43zM478 51q-33 -10 -65 -21q-36 -12 -57 -30h-22q-5 51 0 76h-6q-8 0 -27.5 -9.5t-54.5 -27.5q-69 -39 -119 -39q-98 0 -98 93q0 79 8 100q22 57 81 109
q79 69 173 68q20 -1 42 -3q2 84 -11 107q-20 33 -110 33q-12 0 -68 -18q-63 -21 -80 -37q-11 6 -23 22q38 41 88 72q23 14 70 25q43 10 70 10q59 0 106 -30q55 -36 55 -97v-334q0 -37 4 -43.5t39 -3.5zM334 161l-1 143q-11 6 -30 6q-9 0 -24 -1q-73 1 -122 -64
q-42 -56 -39 -109l1 -37l25 -26q152 24 190 88z" />
    <glyph glyph-name="aring" unicode="&#xe5;" 
d="M332 690l-36 -55q-14 -22 -73 -22q-28 0 -44 8.5t-16 44.5q0 26 7 41l18 37q13 26 50 39l39 1q26 -2 46 -19t20 -40q0 -18 -11 -35zM478 51q-33 -10 -65 -21q-36 -12 -57 -30h-22q-5 51 0 76h-6q-8 0 -27.5 -9.5t-54.5 -27.5q-69 -39 -119 -39q-98 0 -98 93q0 79 8 100
q22 57 81 109q79 69 173 68q20 -1 42 -3q2 84 -11 107q-20 33 -110 33q-12 0 -68 -18q-63 -21 -80 -37q-11 6 -23 22q38 41 88 72q23 14 70 25q43 10 70 10q59 0 106 -30q55 -36 55 -97v-334q0 -37 4 -43.5t39 -3.5zM304 677q-5 41 -51 48l-23 3q-10 1 -17 -2t-12 -4
q0 -36 15 -46q35 -15 88 1zM334 161l-1 143q-11 6 -30 6q-9 0 -24 -1q-73 1 -122 -64q-42 -56 -39 -109l1 -37l25 -26q152 24 190 88z" />
    <glyph glyph-name="ae" unicode="&#xe6;" horiz-adv-x="873" 
d="M800 103q-54 -58 -128 -90q-65 -28 -123 -28q-86 0 -141 46l-5 -2q-34 -11 -56 -30h-22q-4 51 0 76h-5q-8 0 -27.5 -9.5t-55.5 -27.5q-69 -39 -119 -39q-98 0 -98 93q0 79 8 100q22 57 82 109q79 69 172 67q21 0 43 -2q1 84 -12 107q-19 33 -109 33q-12 0 -68 -18
q-63 -21 -81 -37q-10 6 -23 22q38 41 88 72q23 14 71 25q43 9 69 9q43 0 82 -16q44 -20 65 -54q69 73 172 73q82 0 122 -42q26 -22 61 -62q9 -17 19 -53q12 -44 12 -74q0 -12 -3 -21l-10 -39q-49 -7 -113 -7v0q-17 0 -124 3q-75 3 -121 -1v-51q19 -76 49 -113
q54 -66 140 -66q52 0 68 11t53 35zM696 388l-21 64l-49 44q-27 18 -94 18q-37 0 -69.5 -32t-40.5 -73v-72l272 -2zM325 160v52q-3 26 -3 56q0 17 1 35q-11 6 -29 6q-9 0 -24 -1q-73 1 -122 -65q-41 -56 -39 -108l2 -37l25 -26q152 24 189 88z" />
    <glyph glyph-name="ccedilla" unicode="&#xe7;" horiz-adv-x="539" 
d="M494 122q-119 -134 -234 -137l-6 -10q25 -6 74 -25q13 -8 13 -21q0 -9 -8 -22l-40 -70q-19 -34 -57 -56l43 76q7 4 18 13q-3 7 -10 11q-12 7 -36 14q-32 8 -44 13l40 70q3 3 6 7q-113 1 -174 79q-57 73 -57 191q0 135 75 227q80 99 208 99q28 0 76.5 -14t80.5 -30
q-38 -66 -78 -66q-24 0 -71.5 12t-72.5 12q-63 0 -90 -29q-23 -27 -28 -88q-1 -18 -1 -68q0 -253 204 -253q30 0 66 15q7 3 103 50z" />
    <glyph glyph-name="egrave" unicode="&#xe8;" 
d="M338 600q-26 20 -90 51q-58 28 -83 52l-42 66q32 -30 89 -52q62 -24 81 -39zM511 104q-54 -58 -128 -90q-65 -28 -123 -28q-118 0 -177 84q-50 73 -50 198q0 128 65 217q71 97 192 97q82 0 122 -42q26 -21 61 -62q9 -16 19 -53q12 -44 12 -73q0 -13 -3 -21l-10 -39
q-49 -7 -113 -7v0q-12 0 -128 3q-77 2 -125 -2l2 -16q3 -36 22 -84q18 -44 33 -63q54 -66 140 -66q52 0 68 10.5t53 34.5zM407 389l-21 64l-49 44q-27 18 -94 18q-42 0 -76.5 -39.5t-35.5 -85.5l-9 -53l283 -2z" />
    <glyph glyph-name="eacute" unicode="&#xe9;" 
d="M363 752l-42 -66q-25 -24 -83 -52q-64 -31 -90 -51l45 78q19 15 81 39q57 22 89 52zM511 104q-54 -58 -128 -90q-65 -28 -123 -28q-118 0 -177 84q-50 73 -50 198q0 128 65 217q71 97 192 97q82 0 122 -42q26 -21 61 -62q9 -16 19 -53q12 -44 12 -73q0 -13 -3 -21
l-10 -39q-49 -7 -113 -7v0q-12 0 -128 3q-77 2 -125 -2l2 -16q3 -36 22 -84q18 -44 33 -63q54 -66 140 -66q52 0 68 10.5t53 34.5zM407 389l-21 64l-49 44q-27 18 -94 18q-42 0 -76.5 -39.5t-35.5 -85.5l-9 -53l283 -2z" />
    <glyph glyph-name="ecircumflex" unicode="&#xea;" 
d="M411 680l-41 -71q-36 5 -65 34q-23 28 -47 56l-7 -11q-17 -30 -51 -57.5t-69 -55.5l46 79q28 22 58 45t45 48l15 26q2 -1 36 -45q19 -25 38 -35q15 -9 42 -13zM511 104q-54 -58 -128 -90q-65 -28 -123 -28q-118 0 -177 84q-50 73 -50 198q0 128 65 217q71 97 192 97
q82 0 122 -42q26 -21 61 -62q9 -16 19 -53q12 -44 12 -73q0 -13 -3 -21l-10 -39q-49 -7 -113 -7v0q-12 0 -128 3q-77 2 -125 -2l2 -16q3 -36 22 -84q18 -44 33 -63q54 -66 140 -66q52 0 68 10.5t53 34.5zM407 389l-21 64l-49 44q-27 18 -94 18q-42 0 -76.5 -39.5
t-35.5 -85.5l-9 -53l283 -2z" />
    <glyph glyph-name="edieresis" unicode="&#xeb;" 
d="M392 681l-40 -69l-5 3q-48 28 -64 48l40 71q20 -24 63 -49zM235 686l-40 -70l-3 2q-21 14 -66 41l40 70q23 -15 69 -43zM511 104q-54 -58 -128 -90q-65 -28 -123 -28q-118 0 -177 84q-50 73 -50 198q0 128 65 217q71 97 192 97q82 0 122 -42q26 -21 61 -62q9 -16 19 -53
q12 -44 12 -73q0 -13 -3 -21l-10 -39q-49 -7 -113 -7v0q-12 0 -128 3q-77 2 -125 -2l2 -16q3 -36 22 -84q18 -44 33 -63q54 -66 140 -66q52 0 68 10.5t53 34.5zM407 389l-21 64l-49 44q-27 18 -94 18q-42 0 -76.5 -39.5t-35.5 -85.5l-9 -53l283 -2z" />
    <glyph glyph-name="igrave" unicode="&#xec;" horiz-adv-x="361" 
d="M223 607q-25 21 -89 51q-59 28 -84 52l-42 66q32 -30 89 -52q62 -23 81 -39zM294 48l-183 -68l-1 493q-9 27 -33 27q-14 0 -36 -8l-21 26l177 68q3 -18 5 -172q0 15 0 -175l-1 -135q12 -35 45 -35q12 0 27 5z" />
    <glyph glyph-name="iacute" unicode="&#xed;" horiz-adv-x="355" 
d="M247 761l-42 -66q-25 -24 -84 -52q-64 -30 -89 -51l45 78q19 16 81 39q57 22 89 52zM294 48l-183 -68l-1 493q-9 27 -33 27q-14 0 -36 -8l-21 26l177 68q3 -18 5 -172q0 15 0 -175l-1 -135q12 -35 45 -35q12 0 27 5z" />
    <glyph glyph-name="icircumflex" unicode="&#xee;" horiz-adv-x="364" 
d="M284 677l-41 -71q-36 5 -65 34q-23 28 -47 56l-7 -11q-16 -28 -46 -46q-47 -28 -64 -42l46 79q14 12 52 31q27 14 41 37l15 26q2 -1 36 -45q19 -25 38 -35q15 -9 42 -13zM294 48l-183 -68l-1 493q-9 27 -33 27q-14 0 -36 -8l-21 26l177 68q3 -18 5 -172q0 15 0 -175
l-1 -135q12 -35 45 -35q12 0 27 5z" />
    <glyph glyph-name="idieresis" unicode="&#xef;" horiz-adv-x="373" 
d="M274 687l-40 -69l-5 3q-48 28 -64 48l40 71q20 -24 63 -49zM117 692l-40 -70l-3 2q-21 14 -66 41l40 70q23 -15 69 -43zM294 48l-183 -68l-1 493q-9 27 -33 27q-14 0 -36 -8l-21 26l177 68q3 -18 5 -172q0 15 0 -175l-1 -135q12 -35 45 -35q12 0 27 5z" />
    <glyph glyph-name="eth" unicode="&#xf0;" horiz-adv-x="675" 
d="M639 718l-41 -72q-28 -6 -87 -17l-3 -411q0 -17 3 -58t3 -56q10 -30 38 -30q15 0 40 8l23 -28l-188 -62q-6 20 -22 59q0 1 -1 2q-6 0 -75 -31q-73 -33 -124 -33q-83 0 -135 81q-46 71 -46 159q0 353 287 353q31 0 102 -26v73q-24 2 -39 2q-55 0 -91 -32l46 80
q28 25 78 24q-10 24 -36 24q-14 0 -36 -7q-10 -3 -25 27l202 73l-1 -124q26 1 66 10q50 11 62 12zM409 101v364q-25 11 -81 28t-69 17q-115 0 -127 -168q-1 -15 -2 -70q-1 -90 38 -145q43 -62 124 -62q46 0 117 36z" />
    <glyph glyph-name="ntilde" unicode="&#xf1;" horiz-adv-x="768" 
d="M548 731l-41 -54q-23 -16 -47 -32q-28 -17 -53 -17q-26 0 -57 18q-43 25 -80 25q-19 0 -31 -8l-72 -56q18 62 41 84l12 11q36 33 95 33q41 0 72 -18q40 -23 72 -23q33 0 89 37zM699 60l-202 -73l-6 368q-2 68 -33 110q-35 46 -96 46q-89 0 -114 -42q-12 -21 -14 -79
q1 -39 0 -128q0 -59 3 -128q4 -72 4 -81q-7 -11 -23 -21q-23 -13 -26 -16l-68 -30l8 66q9 70 8 97l-8 262q-1 14 -3 20q-1 2 -12 16q-21 27 -57 27q-16 0 -35 -6l-8 31l203 73q-4 -36 -4 -45q1 -5 2 -20h13q42 29 98 50q63 24 106 23q93 -2 131 -74q22 -41 34 -152
q9 -81 6 -128v-102q5 -44 35 -44q12 0 34 7q9 3 24 -27z" />
    <glyph glyph-name="ograve" unicode="&#xf2;" horiz-adv-x="586" 
d="M338 600q-26 20 -90 51q-58 28 -83 52l-42 66q32 -30 89 -52q62 -24 81 -39zM537 289q0 -105 -79 -205q-83 -105 -183 -105q-124 0 -186 74q-60 69 -60 198q0 69 6 113q11 73 49 121q20 25 100 68q53 28 126 28q121 0 179 -89q48 -75 48 -203zM425 272q0 73 -14 109
q-11 28 -57 92q-15 2 -53 15q-32 12 -52 12q-80 0 -107 -55q-20 -39 -20 -134q0 -105 49 -176q54 -80 149 -80q59 0 86 79q19 55 19 138z" />
    <glyph glyph-name="oacute" unicode="&#xf3;" horiz-adv-x="599" 
d="M363 752l-42 -66q-25 -24 -83 -52q-64 -31 -90 -51l45 78q19 15 81 39q57 22 89 52zM537 289q0 -105 -79 -205q-83 -105 -183 -105q-124 0 -186 74q-60 69 -60 198q0 69 6 113q11 73 49 121q20 25 100 68q53 28 126 28q121 0 179 -89q48 -75 48 -203zM425 272
q0 73 -14 109q-11 28 -57 92q-15 2 -53 15q-32 12 -52 12q-80 0 -107 -55q-20 -39 -20 -134q0 -105 49 -176q54 -80 149 -80q59 0 86 79q19 55 19 138z" />
    <glyph glyph-name="ocircumflex" unicode="&#xf4;" horiz-adv-x="592" 
d="M408 680l-41 -71q-36 5 -65 34q-23 28 -47 56l-7 -11q-16 -29 -46 -50q-60 -44 -64 -47l46 79q8 7 52 35q27 18 41 42l15 26q2 -1 36 -45q19 -25 38 -35q15 -9 42 -13zM537 289q0 -105 -79 -205q-83 -105 -183 -105q-124 0 -186 74q-60 69 -60 198q0 69 6 113
q11 73 49 121q20 25 100 68q53 28 126 28q121 0 179 -89q48 -75 48 -203zM425 272q0 73 -14 109q-11 28 -57 92q-15 2 -53 15q-32 12 -52 12q-80 0 -107 -55q-20 -39 -20 -134q0 -105 49 -176q54 -80 149 -80q59 0 86 79q19 55 19 138z" />
    <glyph glyph-name="otilde" unicode="&#xf5;" horiz-adv-x="592" 
d="M464 726l-41 -54q-23 -16 -47 -32q-28 -17 -53 -17q-26 0 -57 18q-43 25 -80 25q-19 0 -31 -8l-72 -56q18 62 41 84l12 11q36 33 95 33q41 0 72 -18q40 -23 72 -23q33 0 89 37zM537 289q0 -105 -79 -205q-83 -105 -183 -105q-124 0 -186 74q-60 69 -60 198q0 69 6 113
q11 73 49 121q20 25 100 68q53 28 126 28q121 0 179 -89q48 -75 48 -203zM425 272q0 73 -14 109q-11 28 -57 92q-15 2 -53 15q-32 12 -52 12q-80 0 -107 -55q-20 -39 -20 -134q0 -105 49 -176q54 -80 149 -80q59 0 86 79q19 55 19 138z" />
    <glyph glyph-name="odieresis" unicode="&#xf6;" horiz-adv-x="589" 
d="M398 684l-40 -69l-5 3q-48 28 -64 48l40 71q20 -24 63 -49zM241 689l-40 -70l-3 2q-21 14 -66 41l40 70q23 -15 69 -43zM537 289q0 -105 -79 -205q-83 -105 -183 -105q-124 0 -186 74q-60 69 -60 198q0 69 6 113q11 73 49 121q20 25 100 68q53 28 126 28q121 0 179 -89
q48 -75 48 -203zM425 272q0 73 -14 109q-11 28 -57 92q-15 2 -53 15q-32 12 -52 12q-80 0 -107 -55q-20 -39 -20 -134q0 -105 49 -176q54 -80 149 -80q59 0 86 79q19 55 19 138z" />
    <glyph glyph-name="oslash" unicode="&#xf8;" horiz-adv-x="602" 
d="M537 289q0 -105 -79 -205q-83 -105 -183 -105q-124 0 -186 74q-60 69 -60 198q0 69 6 113q11 73 49 121q20 25 100 68q53 28 126 28q121 0 179 -89q48 -75 48 -203zM425 272q0 73 -14 109q-11 28 -57 92q-15 2 -53 15q-32 12 -52 12q-80 0 -107 -55q-20 -39 -20 -134
q0 -105 49 -176q54 -80 149 -80q59 0 86 79q19 55 19 138z" />
    <glyph glyph-name="ugrave" unicode="&#xf9;" horiz-adv-x="756" 
d="M427 603q-26 20 -90 51q-58 28 -83 52l-42 66q32 -30 89 -52q62 -24 81 -39zM691 49l-199 -66q-3 28 -14 69q-118 -62 -188 -62q-90 0 -137.5 51t-46.5 143l4 273q-10 30 -36 30q-13 0 -36 -7l-24 27l199 73v-384q0 -59 45 -99t104 -40q53 0 86 24q37 26 36 76l-4 380
q38 12 116 43v-76q0 -30 -6 -106q-4 -69 -3 -106l6 -193q10 -30 35 -30q15 0 40 8z" />
    <glyph glyph-name="uacute" unicode="&#xfa;" horiz-adv-x="753" 
d="M478 761l-42 -66q-25 -24 -84 -52q-64 -30 -89 -51l45 78q19 16 81 39q57 22 89 52zM691 49l-199 -66q-3 28 -14 69q-118 -62 -188 -62q-90 0 -137.5 51t-46.5 143l4 273q-10 30 -36 30q-13 0 -36 -7l-24 27l199 73v-384q0 -59 45 -99t104 -40q53 0 86 24q37 26 36 76
l-4 380q38 12 116 43v-76q0 -30 -6 -106q-4 -69 -3 -106l6 -193q10 -30 35 -30q15 0 40 8z" />
    <glyph glyph-name="ucircumflex" unicode="&#xfb;" horiz-adv-x="742" 
d="M489 686l-41 -71q-36 5 -65 34q-23 28 -47 56l-7 -11q-16 -28 -50 -49q-52 -31 -69 -45l46 79q13 11 57 34q31 16 45 40l15 26q2 -1 36 -45q19 -25 38 -35q15 -9 42 -13zM691 49l-199 -66q-3 28 -14 69q-118 -62 -188 -62q-90 0 -137.5 51t-46.5 143l4 273q-10 30 -36 30
q-13 0 -36 -7l-24 27l199 73v-384q0 -59 45 -99t104 -40q53 0 86 24q37 26 36 76l-4 380q38 12 116 43v-76q0 -30 -6 -106q-4 -69 -3 -106l6 -193q10 -30 35 -30q15 0 40 8z" />
    <glyph glyph-name="udieresis" unicode="&#xfc;" horiz-adv-x="742" 
d="M479 678l-40 -69l-5 3q-48 28 -64 48l40 71q20 -24 63 -49zM322 683l-40 -70l-3 2q-21 14 -66 41l40 70q23 -15 69 -43zM691 49l-199 -66q-3 28 -14 69q-118 -62 -188 -62q-90 0 -137.5 51t-46.5 143l4 273q-10 30 -36 30q-13 0 -36 -7l-24 27l199 73v-384q0 -59 45 -99
t104 -40q53 0 86 24q37 26 36 76l-4 380q38 12 116 43v-76q0 -30 -6 -106q-4 -69 -3 -106l6 -193q10 -30 35 -30q15 0 40 8z" />
    <glyph glyph-name="thorn" unicode="&#xfe;" horiz-adv-x="625" 
d="M570 271q9 -108 -67.5 -202t-167.5 -94q-55 0 -61 2l-64 23q3 -83 0 -93v-93v-93q0 -10 -66 -47q-14 -9 -31 -24q0 72 2 224q1 129 1 209l-5 567q-8 27 -33 27q-13 0 -34 -6q-8 -3 -23 25l181 67l2 -255h10q31 26 76 48q53 26 85 26q73 0 125 -60.5t60 -141.5zM479 308
q-9 78 -48 134q-47 66 -115 66q-41 0 -108 -57l8 -368q76 -42 133 -37q71 6 105 79q27 57 27 139q0 23 -2 44z" />
    <glyph glyph-name="OE" unicode="&#x152;" horiz-adv-x="1069" 
d="M995 108l-51 -122q-21 -5 -83 -5q-40 0 -120 9.5t-120 9.5q-53 0 -138 -19l-3 20q-53 -19 -115 -19q-347 0 -347 424q0 165 98 279q103 120 266 120q40 0 77 -9l255 -1q37 0 119.5 5.5t125.5 5.5q-44 -102 -41 -167h-21q-16 65 -79 98q-53 27 -127 27q-11 0 -18 -1
q-9 -55 -10 -139q1 -62 5 -190q145 5 251 50l4 -16q-18 -71 -11 -150q-20 7 -23 25q-3 27 -89 43q-59 11 -131 13q0 -122 -3 -217q1 -59 8 -98q4 -23 40 -23q241 0 264 62l17 -3v-12zM561 359q0 50 -3 120q-17 115 -65 194q-58 97 -144 97q-103 0 -150 -133
q-33 -93 -33 -226q0 -136 46 -249q61 -145 173 -145q156 0 176 266v76zM542 32q-23 -15 -48 -25q15 4 44 12q2 5 4 13z" />
    <glyph glyph-name="oe" unicode="&#x153;" horiz-adv-x="976" 
d="M904 103q-53 -58 -127 -90q-65 -28 -123 -28q-134 0 -190 106q-85 -112 -189 -112q-124 0 -186 74q-60 69 -60 198q0 69 6 113q11 73 49 121q20 25 100 68q53 28 126 28q125 0 183 -95q71 96 191 96q82 0 122 -42q26 -22 61 -62q9 -17 19 -53q12 -44 12 -74q0 -12 -3 -21
l-10 -39q-49 -7 -114 -7v0q-21 0 -118 3q-72 3 -116 0q0 -29 -8 -60q20 -72 47 -105q54 -66 140 -66q52 0 69 11q14 11 51 35zM801 388l-21 64l-49 44q-27 18 -94 18q-39 0 -72.5 -35t-38.5 -78q6 -30 9 -64l264 -2zM425 272q0 73 -14 109q-11 28 -57 92q-15 2 -53 15
q-32 12 -52 12q-80 0 -107 -55q-20 -39 -20 -134q0 -105 49 -176q54 -80 149 -80q59 0 86 79q19 55 19 138z" />
    <glyph glyph-name="emdash" unicode="&#x2014;" horiz-adv-x="620" 
d="M551 247q-50 8 -115 21q-31 6 -52 6q-15 0 -77 -3q-89 -5 -177 -8l-78 38l58 40l392 -12z" />
    <glyph glyph-name="quoteleft" unicode="&#x2018;" horiz-adv-x="287" 
d="M223 627q-19 12 -52 33q-23 13 -48 13q-1 95 -75 174q66 -17 118 -87q48 -65 57 -133z" />
    <glyph glyph-name="quoteright" unicode="&#x2019;" horiz-adv-x="287" 
d="M223 847q-9 -67 -57 -132q-52 -71 -118 -88q74 80 75 175q25 0 48 13q14 9 52 32z" />
    <glyph glyph-name="quotedblleft" unicode="&#x201c;" horiz-adv-x="487" 
d="M234 848q-77 -80 -78 -175q-26 0 -50 -13q-14 -9 -54 -33q10 68 59 133q54 71 123 88zM411 854q-77 -80 -77 -174q-27 -1 -51 -14q-14 -8 -53 -32q9 68 58 133q54 70 123 87z" />
    <glyph glyph-name="quotedblright" unicode="&#x201d;" horiz-adv-x="487" 
d="M411 854q-9 -68 -58 -132q-55 -71 -123 -88q77 80 77 175q26 0 51 13q14 9 53 32zM234 848q-9 -68 -59 -133q-54 -71 -123 -88q78 80 78 175q26 0 51 13q14 9 53 33z" />
    <glyph glyph-name="dagger" unicode="&#x2020;" horiz-adv-x="568" 
d="M503 422q-4 -22 -21 -31q-48 18 -125 18h-38q-25 -1 -38 -1q-1 -54 0 -139q1 -116 1 -139q0 -79 -4 -123q-9 -100 -38 -100q-27 0 -27 47q0 27 -11 454l-52 1q-20 1 -39 -8t-37 -18q-14 -5 -29 -8q-11 8 -25.5 27t-14.5 30q0 35 34 49q56 -4 166 -8q-2 66 -19 139
q4 17 27 36.5t39 19.5q11 0 30 -14q16 -13 24 -25q-20 -62 -21 -156q10 0 35 3q22 2 34 2q76 0 122 -7q22 -13 27 -49z" />
    <glyph glyph-name="bullet" unicode="&#x2022;" horiz-adv-x="496" 
d="M320 288q0 -25 -34.5 -62.5t-59.5 -37.5q-24 0 -64 24q-43 26 -43 50q0 20 38.5 59.5t59.5 39.5q24 0 62 -23q41 -26 41 -50z" />
    <glyph glyph-name="trademark" unicode="&#x2122;" horiz-adv-x="1176" 
d="M1000 211h-76v356l-146 -356h-48l-144 356l-1 -356h-77v457h114l134 -337l130 337h114v-457zM450 599h-144v-388h-75v388h-143v69h362v-69z" />
    <glyph glyph-name="minus" unicode="&#x2212;" horiz-adv-x="374" 
d="M329 307q-19 -39 -145 -39q-89 0 -106 1q-55 3 -55 21q0 14 18.5 37t34.5 23q15 0 67 -7t67 -7q6 0 96 8q19 -8 23 -37z" />
    <glyph glyph-name="integral" unicode="&#x222b;" horiz-adv-x="222" 
d="M305 691q-40 -27 -68 -40q-44 26 -58 26q-29 0 -40 -105q-5 -50 -5 -133q0 -66 1.5 -197t1.5 -196q0 -121 -23 -164q-31 -57 -138 -92q-47 22 -68 49q40 26 69 39q44 -25 58 -25q9 0 19.5 20.5t10.5 34.5l4 458l-11 5q-21 -3 -30 -3l-58 2q87 35 100 67q6 18 6 96
q0 90 39 136q34 42 123 71q47 -22 67 -49z" />
    <glyph glyph-name="fi" unicode="&#xf001;" horiz-adv-x="619" 
d="M561 46l-182 -67l-2 493q-2 6 1 24q2 13 -7 17h-31q-28 -1 -33 -1q-49 0 -64 -4l4 -335q1 -24 2 -76t6 -65q-9 -5 -37 -24q-20 -11 -66 -38l-5 537q-68 0 -137 6l5 26l139 50q-2 21 0 41q2 11 4 18q13 51 82 86q11 6 45 21q24 12 49.5 24t49.5 15q40 -19 50 -25
q24 -14 47 -38q-18 -11 -51 -30t-48 -19q-9 0 -37 17q-3 1 -68 1q-14 0 -23.5 -36t-8.5 -80l1 -3l218 4q3 -18 5 -173q0 15 0 -174v-135q11 -35 44 -35q12 0 27 4z" />
    <glyph glyph-name="fl" unicode="&#xf002;" horiz-adv-x="628" 
d="M574 46l-16 -25q-21 -5 -97 -21l-60 -11v-2h-26l5 524q-1 -1 -3 -1h-27q-26 1 -44 1q-49 0 -63 -4l4 -335q0 -24 1.5 -76t6.5 -65q-10 -5 -37 -24q-20 -11 -67 -38l-4 537q-69 0 -138 6l5 26l139 50q-2 21 1 41q1 11 3 18q14 51 82 86q12 6 45 21q24 12 48 23
q28 13 51 16q4 -2 9 -2q12 0 43.5 11t40.5 11q5 0 7 -2q7 -4 0 -30l-6 -541q0 -21 -1 -51v-45q-1 -74 13 -78q11 -6 37 -15q9 -1 48 -5zM379 580v101q-8 1 -34 17q-3 1 -68 1q-15 0 -24.5 -36t-7.5 -80v-3h134z" />
    </font>
</defs>
</svg>
