<svg xmlns="http://www.w3.org/2000/svg" viewBox="0 0 222.96816 68.375892" height="100" width="320"><path d="M96.54 67.097c0-2.64 1.236-3.693 4.327-3.693 2.26 0 2.868-.335 3.472-1.91.402-1.052 1.64-2.71 2.752-3.685l2.02-1.775V41.177c0-13.905-.09-14.99-1.39-16.946l-1.39-2.088 2.365-.242c1.3-.134 3.593-.134 5.094 0l2.73.242-1.388 2.09c-1.3 1.954-1.39 3.042-1.39 16.945v14.858l2.02 1.774c1.112.974 2.35 2.632 2.753 3.683.605 1.576 1.214 1.91 3.472 1.91 3.092 0 4.327 1.055 4.327 3.694v1.808H96.54zm-11.176-16.7c-2.586-1.335-6.88-6.42-6.323-7.49.207-.398.91-.724 1.564-.724.902 0 2.197-2.83 5.394-11.788 2.99-8.374 4.522-11.79 5.293-11.79.772 0 2.306 3.416 5.294 11.79 3.677 10.3 4.4 11.788 5.72 11.788 1.912 0 1.897.436-.122 3.58-3.373 5.253-11.35 7.45-16.818 4.633zm12.212-9.59c-1.41-4.52-6.043-16.7-6.352-16.7-.288 0-4.402 10.97-6.412 17.094-.245.748 1.298.983 6.436.983 6.158 0 6.72-.122 6.328-1.375zm27.55 9.135c-2.483-1.46-6.09-5.75-6.09-7.243 0-.285.68-.517 1.513-.517 1.322 0 2.043-1.487 5.72-11.788 2.988-8.374 4.522-11.79 5.293-11.79.77 0 2.305 3.416 5.293 11.79 3.197 8.957 4.493 11.788 5.395 11.788.654 0 1.357.326 1.564.723.578 1.11-3.795 6.196-6.47 7.524-3.47 1.722-8.823 1.508-12.22-.488zm12.916-8.74c-2.01-6.125-6.124-17.095-6.41-17.095-.31 0-4.944 12.18-6.354 16.7-.39 1.254.17 1.376 6.33 1.376 5.136 0 6.68-.235 6.434-.982zM.605 31.57c0-.647.446-1.177.992-1.177s.993.53.993 1.178c0 .65-.447 1.18-.993 1.18s-.992-.53-.992-1.18zm3.97 0c0-.647.446-1.177.992-1.177s.992.53.992 1.178c0 .65-.447 1.18-.993 1.18s-.992-.53-.992-1.18zm2.646 0c0-.647.448-1.177.993-1.177.546 0 .993.53.993 1.178 0 .65-.447 1.18-.993 1.18-.545 0-.992-.53-.992-1.18zm3.97 0c0-.647.447-1.177.993-1.177s.993.53.993 1.178c0 .65-.447 1.18-.993 1.18s-.992-.53-.992-1.18zm2.647 0c0-.647.447-1.177.993-1.177s.992.53.992 1.178c0 .65-.446 1.18-.992 1.18s-.993-.53-.993-1.18zm3.97 0c0-.647.447-1.177.992-1.177.545 0 .992.53.992 1.178 0 .65-.447 1.18-.993 1.18s-.993-.53-.993-1.18zm2.647 0c0-.647.446-1.177.992-1.177s.992.53.992 1.178c0 .65-.446 1.18-.992 1.18s-.992-.53-.992-1.18zm3.97 0c0-.647.446-1.177.992-1.177s.992.53.992 1.178c0 .65-.446 1.18-.992 1.18s-.993-.53-.993-1.18zm2.646 0c0-.647.446-1.177.992-1.177s.993.53.993 1.178c0 .65-.447 1.18-.993 1.18s-.992-.53-.992-1.18zm3.97 0c0-.647.446-1.177.992-1.177s.992.53.992 1.178c0 .65-.446 1.18-.992 1.18s-.992-.53-.992-1.18zm2.646 0c0-.647.447-1.177.993-1.177.544 0 .99.53.99 1.178 0 .65-.446 1.18-.99 1.18-.547 0-.994-.53-.994-1.18zm3.97 0c0-.647.446-1.177.992-1.177s.993.53.993 1.178c0 .65-.446 1.18-.992 1.18s-.992-.53-.992-1.18zm2.646 0c0-.647.447-1.177.993-1.177s.992.53.992 1.178c0 .65-.446 1.18-.992 1.18s-.993-.53-.993-1.18zm3.97 0c0-.647.447-1.177.993-1.177.545 0 .992.53.992 1.178 0 .65-.447 1.18-.992 1.18-.546 0-.993-.53-.993-1.18zm2.647 0c0-.654.587-1.177 1.322-1.177.735 0 1.323.523 1.323 1.178 0 .655-.588 1.18-1.323 1.18s-1.323-.525-1.323-1.18zm3.968 0c0-.647.447-1.177.993-1.177.547 0 .993.53.993 1.178 0 .65-.446 1.18-.992 1.18-.545 0-.992-.53-.992-1.18zm2.647 0c0-.654.588-1.177 1.323-1.177s1.323.523 1.323 1.178c0 .655-.587 1.18-1.322 1.18-.735 0-1.323-.525-1.323-1.18zm3.97 0c0-.647.446-1.177.992-1.177s.993.53.993 1.178c0 .65-.447 1.18-.993 1.18s-.992-.53-.992-1.18zm2.646 0c0-.654.59-1.177 1.324-1.177.736 0 1.324.523 1.324 1.178 0 .655-.588 1.18-1.324 1.18-.735 0-1.323-.525-1.323-1.18zm4.023-.064c.032-.916.19-1.102.4-.475.19.567.168 1.245-.052 1.506-.22.26-.376-.204-.347-1.032zm95.222.065c0-.648.447-1.178.993-1.178.545 0 .992.53.992 1.178 0 .65-.447 1.18-.992 1.18-.546 0-.993-.53-.993-1.18zm3.97 0c0-.648.447-1.178.992-1.178.546 0 .993.53.993 1.178 0 .65-.447 1.18-.993 1.18-.545 0-.992-.53-.992-1.18zm2.646 0c0-.648.448-1.178.994-1.178s.992.53.992 1.178c0 .65-.446 1.18-.992 1.18s-.993-.53-.993-1.18zm3.97 0c0-.648.448-1.178.994-1.178.545 0 .992.53.992 1.178 0 .65-.447 1.18-.992 1.18-.546 0-.993-.53-.993-1.18zm2.648 0c0-.648.446-1.178.992-1.178s.993.53.993 1.178c0 .65-.447 1.18-.993 1.18s-.992-.53-.992-1.18zm3.97 0c0-.648.446-1.178.992-1.178s.992.53.992 1.178c0 .65-.446 1.18-.992 1.18s-.993-.53-.993-1.18zm2.646 0c0-.648.447-1.178.992-1.178.546 0 .993.53.993 1.178 0 .65-.448 1.18-.994 1.18-.545 0-.992-.53-.992-1.18zm3.97 0c0-.648.446-1.178.992-1.178s.993.53.993 1.178c0 .65-.448 1.18-.994 1.18s-.992-.53-.992-1.18zm2.646 0c0-.648.447-1.178.993-1.178.545 0 .992.53.992 1.178 0 .65-.447 1.18-.992 1.18-.546 0-.993-.53-.993-1.18zm3.97 0c0-.648.447-1.178.992-1.178.546 0 .993.53.993 1.178 0 .65-.447 1.18-.993 1.18-.545 0-.992-.53-.992-1.18zm2.646 0c0-.648.447-1.178.993-1.178.545 0 .99.53.99 1.178 0 .65-.445 1.18-.99 1.18-.547 0-.994-.53-.994-1.18zm3.97 0c0-.648.447-1.178.993-1.178.545 0 .99.53.99 1.178 0 .65-.445 1.18-.99 1.18-.547 0-.994-.53-.994-1.18zm2.647 0c0-.648.446-1.178.992-1.178s.993.53.993 1.178c0 .65-.447 1.18-.993 1.18s-.992-.53-.992-1.18zm3.97 0c0-.648.446-1.178.992-1.178s.992.53.992 1.178c0 .65-.446 1.18-.992 1.18s-.993-.53-.993-1.18zm2.646 0c0-.655.587-1.178 1.322-1.178.735 0 1.324.523 1.324 1.178 0 .655-.59 1.18-1.324 1.18-.735 0-1.323-.525-1.323-1.18zm3.97 0c0-.648.445-1.178.99-1.178.547 0 .994.53.994 1.178 0 .65-.447 1.18-.993 1.18-.545 0-.99-.53-.99-1.18zm2.645 0c0-.655.588-1.178 1.324-1.178.734 0 1.322.523 1.322 1.178 0 .655-.588 1.18-1.323 1.18-.737 0-1.325-.525-1.325-1.18zm3.97 0c0-.648.447-1.178.992-1.178.546 0 .993.53.993 1.178 0 .65-.447 1.18-.993 1.18-.545 0-.992-.53-.992-1.18zm2.647 0c0-.655.588-1.178 1.323-1.178s1.323.523 1.323 1.178c0 .655-.588 1.18-1.323 1.18s-1.323-.525-1.323-1.18zm4.022-.065c.03-.916.188-1.102.4-.475.19.567.167 1.245-.053 1.506-.22.26-.375-.204-.346-1.032zM109.117 17.61c-.906-.554-1.757-1.707-1.89-2.56-.635-4.063-3.72-5.016-9.045-2.793-2.1.876-4.346 2.164-4.995 2.86-1.426 1.534-3.19 1.245-4.184-.684-.587-1.137-.476-1.648.556-2.558.708-.625 1.826-.933 2.484-.685.658.248 2.844-.28 4.857-1.175 4.07-1.81 6.603-2.03 9.305-.81 2.538 1.148 3.838.46 2.815-1.484-.64-1.22-.515-2.003.7-4.34.817-1.568 1.585-2.85 1.707-2.85.123 0 .89 1.282 1.707 2.85 1.216 2.337 1.342 3.12.7 4.34-1.023 1.946.278 2.633 2.815 1.486 2.702-1.22 5.234-1 9.304.81 2.013.893 4.198 1.422 4.856 1.174.658-.248 1.777.06 2.486.685 1.03.91 1.142 1.42.556 2.558-.994 1.93-2.76 2.218-4.184.685-1.863-2.002-8.638-4.545-10.572-3.968-2.255.672-3.368 1.837-3.368 3.526 0 2.844-3.918 4.584-6.61 2.935z" fill="#d4a670"/></svg>