<svg xmlns="http://www.w3.org/2000/svg" id="svg208" width="200mm" height="720mm" viewBox="0 0 200 720"><path id="path136" fill="#baad3c" d="M84.286 24.075a2.037 2.25 0 0 0-1.568-.828h-7.7c-1.906-5.534-4.38-10.96-7.196-13.006-9.738-7.07-35.567-7.07-45.305 0-2.817 2.05-5.28 7.483-7.194 13.01H7.62a2.02 2.23 0 0 0-1.57.828 2.016 2.227 0 0 0-.414 1.867L6.78 32.05a2.027 2.238 0 0 0 1.984 1.783h2.28c-2.21 2.802-3.275 6.333-3.29 9.87-.014 4.367 1.488 8.314 4.236 11.107.03.028.062.048.088.078v8.544a3.04 3.357 0 0 0 3.04 3.356h7.107a3.04 3.357 0 0 0 3.04-3.356V60h39.803v3.432a3.04 3.357 0 0 0 3.04 3.356h7.107c1.674 0 3.04-1.506 3.04-3.356v-8.374c2.914-2.948 4.307-7.005 4.325-11.05.012-3.657-1.105-7.318-3.437-10.183h2.432a2.02 2.23 0 0 0 1.986-1.79l1.145-6.1a2.043 2.256 0 0 0-.416-1.862zM25.86 15.847c7.76-5.64 30.864-5.64 38.62 0 1.508 1.092 3.445 5.505 5.225 10.913H20.637c1.77-5.404 3.708-9.817 5.218-10.913zm-9.096 28.7a5.978 6.602 0 1 1 11.957 0 5.978 6.602 0 0 1-11.955 0zm50.908 6.6a5.98 6.604 0 1 1 0-13.206 5.982 6.605 0 0 1 0 13.21z"/><g id="g142" fill="#baad3c"><path id="path138" d="M60.74 113.26H27.92a1.313 1.363 0 0 0 0 2.726h32.82a1.313 1.363 0 0 0 0-2.726zm-32.82-8.18h13.128a1.313 1.363 0 0 0 0-2.726H27.92a1.313 1.363 0 0 0 0 2.726zm32.82 19.086H27.92a1.313 1.363 0 0 0 0 2.726h32.82a1.313 1.363 0 0 0 0-2.726zm0 10.905H27.92a1.313 1.363 0 0 0 0 2.73h32.82a1.313 1.363 0 0 0 0-2.728zm0 10.908H27.92a1.313 1.363 0 0 0 0 2.727h32.82a1.313 1.363 0 0 0 0-2.727z"/><path id="path140" d="M65.992 99.063V79.18H9.54v74.977h6.564v6.816h56.452V105.88zM54.177 90.65l11.815 12.268 2.082 2.162H54.177zm-42.01 60.78V81.905h51.2v14.432l-9.96-10.342H16.104v65.435zm6.563 6.816V88.722h32.82v19.085h18.38v50.44z"/></g><path id="path144" fill="#baad3c" d="M54.993 188.52c4.027 2.363 6.85 6.365 7.364 11.01a12.705 11.9 0 0 0 5.398 1.13c7.054 0 12.773-5.355 12.773-11.96 0-6.608-5.72-11.963-12.775-11.963-6.988.002-12.655 5.263-12.76 11.782zm-8.368 24.493c7.055 0 12.773-5.357 12.773-11.963 0-6.607-5.72-11.96-12.772-11.96-7.054 0-12.775 5.353-12.775 11.96 0 6.606 5.723 11.963 12.777 11.963zm5.418.814H41.208c-9.018 0-16.354 6.874-16.354 15.32v12.414l.032.195.913.27c8.606 2.518 16.08 3.358 22.234 3.358 12.02 0 18.987-3.21 19.415-3.415l.852-.404h.092v-12.416c.004-8.446-7.332-15.32-16.35-15.32zm21.132-12.348H62.42a15.74 14.743 0 0 1-4.857 10.267c8.014 2.233 13.88 9.195 13.88 17.417v3.828c10.617-.367 16.736-3.184 17.138-3.374l.856-.406h.09v-12.42c0-8.443-7.335-15.315-16.35-15.315zm-48.96-.816c2.5 0 4.825-.684 6.792-1.848a15.806 14.805 0 0 1 5.943-9.443c.013-.224.036-.446.036-.672 0-6.606-5.72-11.962-12.77-11.962-7.056 0-12.772 5.355-12.772 11.963 0 6.605 5.716 11.96 12.772 11.96zm11.47 11.082a15.75 14.752 0 0 1-4.855-10.21c-.4-.03-.793-.06-1.2-.06H18.795c-9.02 0-16.354 6.873-16.354 15.32v12.414l.034.192.913.27c6.905 2.018 13.066 2.948 18.417 3.24v-3.748c.002-8.222 5.864-15.182 13.882-17.417z"/><g id="g150" fill="#baad3c"><path id="path146" d="M45.017 271.163l-29.17 26.144a.81.81 0 0 1-.027.165.815.815 0 0 0-.025.165v26.474c0 .957.32 1.786.964 2.483.64.698 1.4 1.05 2.28 1.05h19.48v-21.18h12.99v21.18h19.48c.88 0 1.643-.35 2.285-1.05a3.542 3.542 0 0 0 .965-2.48v-26.475a.837.837 0 0 0-.05-.33l-29.173-26.144z"/><path id="path148" d="M85.35 291.35l-11.11-10.038V258.81c0-.515-.152-.938-.458-1.27-.302-.33-.692-.495-1.166-.495h-9.74c-.474 0-.863.165-1.168.496-.304.333-.456.756-.456 1.27v10.755l-12.378-11.252c-1.082-.956-2.367-1.434-3.856-1.434-1.488 0-2.773.477-3.855 1.433L4.683 291.35c-.337.294-.523.69-.557 1.186-.034.496.084.93.355 1.297l3.147 4.08c.27.332.626.534 1.066.608.406.04.812-.09 1.218-.384L45.02 266.31l35.108 31.826c.27.257.626.384 1.065.384h.154c.44-.073.793-.277 1.065-.607l3.145-4.08c.27-.37.39-.802.354-1.298-.036-.495-.22-.89-.56-1.185z"/></g><path fill="#baad3c" id="path152" d="M80.782 352.417h-2.688v-4.06H64.588v4.06h-5.403v-7.842a4.336 4.345 0 0 0-4.33-4.34H33.8a4.336 4.345 0 0 0-4.33 4.34v7.842h-5.4v-4.06H10.56v4.06H7.875a4.074 4.074 0 0 0-4.066 4.075v48.702a4.074 4.074 0 0 0 4.064 4.075H80.78a4.074 4.074 0 0 0 4.066-4.077V356.49a4.074 4.074 0 0 0-4.065-4.074zm-13.493-1.353h8.102v1.353H67.29zm-35.118-6.49c0-.9.73-1.632 1.628-1.632h21.055c.9 0 1.63.73 1.63 1.633v7.842H32.172zm-2.702 10.55h41.87v51.438H17.317v-51.437zm-16.206-4.06h8.103v1.353h-8.103zm-6.754 54.13v-48.702c0-.754.612-1.367 1.365-1.367h6.74v51.437h-6.74a1.364 1.367 0 0 1-1.365-1.368zm75.636 0a1.364 1.367 0 0 1-1.364 1.368h-6.74v-51.437h6.74c.752 0 1.364.613 1.364 1.367z"/><g id="g158" fill="#baad3c"><path id="path154" d="M43.33 464.715a1.64 1.58 0 0 0 3.277 0 8.164 7.876 0 0 1 1.918-5.066c2.753-3.15 4.816-6.56 6.123-10.143a1.642 1.584 0 0 0-1.547-2.11H36.837a1.642 1.584 0 0 0-1.547 2.108c1.306 3.583 3.366 6.995 6.117 10.142a8.164 7.876 0 0 1 1.922 5.066zm3.277 6.337a1.64 1.58 0 0 0-3.278 0c0 2.283-1.417 4.54-3.98 6.372-5.487 3.908-9.59 8.15-12.204 12.614a1.627 1.57 0 0 0 .015 1.572c.293.488.83.785 1.413.785H61.36a1.637 1.58 0 0 0 1.428-2.357c-2.61-4.463-6.717-8.706-12.2-12.614-2.568-1.832-3.98-4.09-3.983-6.372z"/><path id="path156" d="M73.653 494.77h-.982c-1.123-12.31-8.592-21.758-14.4-28.47 5.81-6.707 13.274-16.16 14.406-28.466h.982a3.28 3.163 0 0 0 0-6.326H16.28a3.28 3.163 0 0 0 0 6.326h.982c1.127 12.31 8.594 21.76 14.403 28.467-5.807 6.713-13.275 16.16-14.406 28.47h-.98a3.28 3.164 0 0 0 0 6.328h57.376a3.28 3.164 0 0 0-.003-6.328zm-49.82 0c1.233-11.122 8.726-19.685 14.326-26.084l.297-.34a3.275 3.16 0 0 0 0-4.08l-.297-.34c-5.598-6.402-13.094-14.965-14.327-26.088h42.27c-1.233 11.123-8.73 19.686-14.327 26.087l-.297.34a3.275 3.16 0 0 0 0 4.08l.3.342c5.596 6.4 13.09 14.962 14.322 26.082z"/></g><g id="g164" fill="#baad3c"><path id="path160" d="M13.08 548.935a19.81 19.81 0 0 0 1.758 4.197l-2.123 2.69a2.216 2.216 0 0 0 .165 2.926l3.657 3.674a2.18 2.18 0 0 0 2.912.166l2.66-2.116c1.37.792 2.824 1.41 4.34 1.846l.4 3.44a2.196 2.196 0 0 0 2.174 1.95H34.2a2.197 2.197 0 0 0 2.174-1.95l.382-3.318a19.5 19.5 0 0 0 4.653-1.89l2.572 2.046a2.19 2.19 0 0 0 2.912-.165l3.657-3.672c.79-.793.86-2.046.166-2.926l-2.002-2.55a19.24 19.24 0 0 0 1.915-4.597l3.085-.357a2.2 2.2 0 0 0 1.94-2.186v-5.198a2.2 2.2 0 0 0-1.94-2.185l-3.042-.358a19.357 19.357 0 0 0-1.838-4.545l1.872-2.377a2.216 2.216 0 0 0-.164-2.926l-3.65-3.665a2.18 2.18 0 0 0-2.91-.167l-2.297 1.83a19.237 19.237 0 0 0-4.758-2.003l-.348-2.986a2.196 2.196 0 0 0-2.175-1.95H29.23c-1.11 0-2.044.836-2.174 1.95l-.347 2.987a19.16 19.16 0 0 0-4.88 2.074l-2.382-1.9a2.19 2.19 0 0 0-2.913.167l-3.657 3.675a2.206 2.206 0 0 0-.165 2.927l1.993 2.533a18.993 18.993 0 0 0-1.802 4.59l-3.19.365a2.2 2.2 0 0 0-1.94 2.185v5.198a2.2 2.2 0 0 0 1.94 2.186zm18.744-14.06c4.715 0 8.554 3.856 8.554 8.592 0 4.737-3.84 8.594-8.554 8.594s-8.553-3.855-8.553-8.592c0-4.736 3.84-8.593 8.555-8.593z"/><path id="path162" d="M82.973 550.215l-2.73-2.316a2.152 2.152 0 0 0-2.877.077l-1.508 1.42a15.538 15.538 0 0 0-4.02-1.307l-.425-2.09a2.18 2.18 0 0 0-2.306-1.74l-3.562.304a2.176 2.176 0 0 0-1.984 2.1l-.07 2.123a15.606 15.606 0 0 0-3.837 2.03l-1.802-1.203a2.158 2.158 0 0 0-2.85.41l-2.306 2.76c-.71.844-.676 2.09.078 2.89l1.578 1.69a16.292 16.292 0 0 0-1.16 3.865l-2.254.46a2.188 2.188 0 0 0-1.734 2.316l.304 3.58a2.175 2.175 0 0 0 2.088 1.992l2.436.078a16.014 16.014 0 0 0 1.724 3.308l-1.36 2.064a2.183 2.183 0 0 0 .407 2.865l2.73 2.316c.84.714 2.08.68 2.877-.08l1.785-1.68a15.55 15.55 0 0 0 3.667 1.2l.493 2.458a2.18 2.18 0 0 0 2.307 1.74l3.56-.305a2.176 2.176 0 0 0 1.986-2.098l.078-2.403a16.05 16.05 0 0 0 3.667-1.864l1.968 1.306c.92.61 2.14.436 2.85-.41l2.307-2.74a2.18 2.18 0 0 0-.077-2.892l-1.586-1.69a15.736 15.736 0 0 0 1.248-3.882l2.166-.444a2.188 2.188 0 0 0 1.735-2.317l-.303-3.578a2.175 2.175 0 0 0-2.087-1.994l-2.176-.07a15.738 15.812 0 0 0-1.81-3.588l1.186-1.794c.624-.922.45-2.16-.39-2.873zM69.55 570.903c-3.85.33-7.246-2.55-7.567-6.417-.33-3.866 2.54-7.28 6.388-7.6 3.85-.332 7.247 2.55 7.567 6.416.33 3.866-2.54 7.28-6.387 7.6zm-44.01 9.63a2.17 2.17 0 0 0-1.94 2.142l-.026 2.202a2.167 2.167 0 0 0 1.89 2.186l1.61.21c.27.983.65 1.923 1.145 2.81l-1.04 1.29a2.178 2.178 0 0 0 .13 2.89l1.532 1.576c.77.79 2.002.88 2.877.2l1.29-1.003c.91.54 1.873.967 2.878 1.263l.172 1.673a2.17 2.17 0 0 0 2.132 1.95l2.193.026a2.165 2.165 0 0 0 2.175-1.9l.2-1.585c1.09-.27 2.13-.68 3.12-1.22l1.213.985a2.15 2.15 0 0 0 2.877-.13l1.568-1.54a2.18 2.18 0 0 0 .2-2.89l-.928-1.21a12.658 12.658 0 0 0 1.318-3.05l1.438-.147a2.17 2.17 0 0 0 1.942-2.142l.026-2.2a2.167 2.167 0 0 0-1.89-2.186l-1.404-.183a13.154 13.154 0 0 0-1.187-3.046l.875-1.08a2.178 2.178 0 0 0-.13-2.89l-1.533-1.577a2.164 2.174 0 0 0-2.878-.2l-1.05.81a12.717 12.717 0 0 0-3.154-1.376l-.14-1.366a2.17 2.17 0 0 0-2.13-1.95l-2.193-.026c-1.1-.018-2.037.8-2.175 1.898l-.174 1.358c-1.143.296-2.243.75-3.266 1.34l-1.083-.887a2.153 2.153 0 0 0-2.877.13l-1.577 1.55a2.18 2.18 0 0 0-.2 2.89l.927 1.203a12.78 12.78 0 0 0-1.24 3.046zm14.153-2.49c3.146.034 5.668 2.638 5.634 5.798-.035 3.163-2.626 5.697-5.772 5.66-3.146-.033-5.668-2.636-5.633-5.797.034-3.16 2.626-5.694 5.77-5.66z"/></g><path id="path166" fill="#baad3c" d="M92.01 672.583l-10.383-29.655-29.48-5.27v-2.472c0-.817-.71-1.48-1.59-1.48-.876 0-1.587.663-1.587 1.48v1.906l-29.892-5.343-10.104 33.26.752.195h-.89c0 4.733 5.428 8.58 12.1 8.58 6.31 0 11.85-4.177 12.077-9.01l.055-.017-.045-.134c.002-.053.012-.106.012-.158h-.066l-9.9-28.993 25.9 4.63v53.76H32.31l-5.227 8.076h45.82l-3.972-8.075H52.147V640.67l24.445 4.37-6.897 28.284h-.04c0 4.73 5.047 8.58 11.256 8.58 5.994 0 11.254-4.357 11.254-9.32h-.152z"/><path id="path168" fill="#fcab70" d="M198.712 24.662c-14.55-.168-15.64-.113-37.24-.09l-36.363-.192 2.076-5.47 4.618-9.48-13.114 8.67c-4.64 3.005-10.615 5.333-13.116 6.154-2.5.82-4.797 1.798-5.1 2.17-.305.373.73 1.158 2.3 1.745 11.355 4.237 19.754 7.91 24.698 10.792l5.764 3.363-3.986-6.358-3.986-6.358 37.292.15c22.608.093 42.53.71 37.825.38-.326-1 0-2.054-.1-2.54.082-3.01.384-2.834-1.567-2.94z"/><g id="g174" fill="#fdab6f"><path id="path170" d="M156.855 84.49c-14.543 0-26.33 8.667-26.33 19.364 0 5.244 2.835 10.01 7.453 13.497-.272 3.557-1.167 7.9-3.76 10.25 5.16 0 10.436-3.1 13.774-5.51a33.46 31.99 0 0 0 8.863 1.12c14.543 0 26.33-8.66 26.33-19.363 0-10.69-11.787-19.364-26.33-19.364z"/><path id="path172" d="M191.855 105.74c2.216-2.827 3.484-6.12 3.484-9.632 0-10.697-11.79-19.364-26.333-19.364-6.4 0-12.266 1.68-16.828 4.47a37.763 37.763 0 0 1 6.7-.597c15.66 0 28.356 9.54 28.356 21.3 0 4.636-1.965 8.93-5.315 12.42 3.323 2.417 8.61 5.516 13.774 5.516-3.674-3.33-3.937-10.717-3.84-14.117z"/></g><path id="path176" fill="#e8a971" d="M156.46 197.288c-5.544-4.058-16.203-13.596-16.203-14.495 0-.4.688-3.234 1.53-6.297.84-3.063 1.964-7.64 2.495-10.17.96-4.577.982-4.6 4.082-4.6h3.116l-1.99 3.188c-2.268 3.64-2.597 8.314-.705 10.024 1.984 1.79 6.465 1.422 8.56-.704 3.99-4.056 5.356-3.64 14.134 4.292 8.054 7.28 10.75 10.702 10.064 12.774-.68 2.05-2.285 1.103-7.072-4.162-4.608-5.07-6.842-6.438-6.842-4.19 0 .59 2.037 3.31 4.525 6.048 4.34 4.775 4.987 6.905 2.093 6.905-.736 0-3.428-2.25-5.983-5.002-3.65-3.93-4.856-4.774-5.624-3.936-.77.84-.06 2.08 3.31 5.795 4.12 4.542 4.713 6.65 1.863 6.65-.733 0-3.065-1.854-5.18-4.123-3-3.216-4.062-3.892-4.818-3.07-.756.824-.402 1.693 1.605 3.947 4.49 5.044 3.103 5.57-2.962 1.13zm31.866-8.14c-.206-.384-1.722-5.012-3.37-10.288-1.646-5.276-3.88-11.775-4.964-14.44-1.822-4.486-1.868-4.93-.62-5.925 1.905-1.515 8.607-2.896 15.23-3.137l5.636-.206v34.177l-5.77.256c-3.172.14-5.936-.058-6.142-.44zm-64.44-3.472c-.294-.32-.535-8.022-.535-17.114 0-13.96.19-16.613 1.22-17.04 1.72-.72 15.497 1.927 16.974 3.26 1.507 1.363 1.132 4.47-2.166 17.896-3.545 14.432-2.955 13.583-9.435 13.583-3.035 0-5.76-.26-6.055-.582zm50.185-10.048c-5.09-4.75-9.665-8.64-10.164-8.64-1.62-.01-6.44 2.485-7.508 3.887-1.16 1.524-5.673 1.88-5.673.444 0-1.97 2.456-5.93 5.585-9.006 4.07-4.003 7.708-4.18 15.266-.744l5.154 2.344 3.527 9.977c1.94 5.49 3.425 10.067 3.3 10.177-.124.11-4.394-3.688-9.486-8.44z"/><path id="path178" fill="#d8a873" d="M145.73 282.504c0-2.476 1.697-3.53 5.69-3.53 1.508 0 2.67-.73 3.072-1.933.355-1.06 1.78-2.78 3.166-3.81 2.484-1.855 2.517-2.095 2.486-17.406-.025-11.94-.376-15.955-1.515-17.383-2.103-2.635-1.06-3.527 4.125-3.527s6.23.89 4.128 3.527c-1.14 1.427-1.49 5.44-1.515 17.38-.034 15.31 0 15.55 2.485 17.405 1.386 1.034 2.81 2.75 3.166 3.813.403 1.202 1.564 1.932 3.073 1.932 3.99 0 5.69 1.054 5.69 3.53v2.344H145.73zm-11.92-16.656c-1.732-.715-4.45-2.77-6.042-4.564-2.67-3.01-2.746-3.314-.98-3.898 1.302-.432 3.44-4.505 6.706-12.777 2.64-6.68 5.377-12.147 6.085-12.147.705 0 3.46 5.477 6.12 12.17 3.16 7.95 5.473 12.378 6.67 12.776 1.643.547 1.54.94-1.067 3.875-4.855 5.475-11.25 7.14-17.494 4.56zm11.222-15.024c-1.466-3.635-3.148-8.04-3.738-9.79-1.352-4.013-2.164-4.013-3.516 0-.59 1.75-2.272 6.155-3.74 9.79l-2.664 6.61H147.7zm35.218 15.023c-1.73-.715-4.45-2.77-6.042-4.564-2.602-2.936-2.71-3.326-1.063-3.874 1.197-.4 3.507-4.83 6.668-12.78 2.662-6.692 5.417-12.17 6.124-12.17.708 0 3.445 5.467 6.082 12.146 3.264 8.272 5.403 12.345 6.706 12.777 1.763.584 1.687.888-.984 3.9-4.855 5.475-11.247 7.14-17.49 4.56zm11.223-15.023c-1.466-3.635-3.148-8.04-3.738-9.79-1.352-4.013-2.164-4.013-3.516 0-.59 1.75-2.274 6.155-3.74 9.79l-2.67 6.61h16.33zm-32.744-20.968c-.91-1.228-1.65-2.787-1.65-3.464 0-3.405-10.897-1.733-15.77 2.42-1.687 1.434-1.98 1.432-3.524-.034-1.415-1.342-1.465-1.85-.32-3.162.754-.86 1.952-1.35 2.665-1.09.713.26 3.72-.404 6.688-1.473 4.31-1.555 6.012-1.74 8.496-.917 4.398 1.454 5.09 1.297 4.33-.98-.403-1.207.037-3.032 1.11-4.584l1.78-2.578 1.98 2.32c1.273 1.492 1.765 3.13 1.38 4.585-.673 2.544-.127 2.7 4.302 1.236 2.484-.822 4.186-.638 8.497.916 2.967 1.068 5.976 1.73 6.687 1.47.713-.258 1.91.233 2.663 1.092 1.146 1.31 1.095 1.82-.32 3.162-1.545 1.466-1.837 1.468-3.523.033-2.874-2.45-10.368-4.94-12.932-4.3-1.277.32-3.018 2.02-3.87 3.778-1.985 4.097-6.235 4.864-8.672 1.564z"/><path id="path180" fill="#fcaa6e" d="M151.75 356.59c-11.027-4.21-17.3-10.266-21.212-20.464-2.12-5.535-2.424-9.638-1.22-16.605.83-4.81 1.463-6.86 2.954-9.565 2.636-4.79 5.857-8.487 10.13-11.62 11.64-8.54 25.998-9.428 40.1-2.48 4.176 2.06 4.815 2.617 9.457 8.267 3.554 4.33 5.375 7.117 6.373 9.752 3.266 8.636 2.257 18.997-2.698 27.71-4.914 8.64-16.28 15.882-26.622 16.96-4.583.478-13.557-.537-17.264-1.953zm14.14-4.643c7.134-.218 15.222-3.963 20.187-9.346 4.475-4.846 6.744-10.833 6.885-18.15.136-7.103-4.252-15.68-10.535-20.58-3.02-2.36-8.79-4.78-12.37-5.19l-2.425-.28-1.713 13.24-1.714 13.236-8.715-10.48-8.713-10.476-1.85 1.305c-2.75 1.94-6.06 6.94-7.783 11.756-2.042 5.71-1.973 10.9.225 16.797 3.044 8.172 8.746 13.707 16.84 16.344 5.404 1.766 6.766 1.978 11.68 1.83z"/><g id="g186" fill="#010002"><path id="path182" d="M179.503 370.7c5.858.06 9.53-.332 10.024 6.667h7.144c0-10.842-8.77-12.304-17.352-12.304s-17.355 1.462-17.355 12.304h7.09c.546-7.132 4.64-6.73 10.45-6.668zm-14 10.153c1.742 0 3.19.112 3.51-1.733.045-.25.07-.535.07-.863h-7.156c0 2.744 1.603 2.596 3.577 2.596zm24.07-2.596h-.067c0 .33.027.616.076.863.34 1.702 1.785 1.597 3.52 1.597 1.985 0 3.594.14 3.594-2.46z"/><path id="path184" d="M186.084 376.388v-1.09c0-.49-.523-.518-1.166-.518h-1.053c-.642 0-1.163.03-1.163.517v1.67h-7.44v-1.67c0-.488-.52-.517-1.164-.517h-1.053c-.643 0-1.163.03-1.163.517v2.043c-1.696 1.898-7.24 9.98-7.443 10.955v6.53c0 .602.455 1.092 1.015 1.092h27.052c.558 0 1.014-.49 1.014-1.093v-6.56c-.2-.95-5.743-9.027-7.44-10.925v-.953zm-11.19 12.787a.986 1.063 0 1 1 0-2.125.986 1.063 0 0 1 0 2.125zm0-3.645a.986 1.063 0 1 1 0-2.125.986 1.063 0 0 1 0 2.125zm0-3.645a.986 1.063 0 1 1 0-2.124.986 1.063 0 0 1 0 2.127zm4.06 7.29a.986 1.063 0 1 1 0-2.125.986 1.063 0 0 1 0 2.125zm0-3.645a.986 1.063 0 1 1 0-2.125.986 1.063 0 0 1 0 2.125zm0-3.645a.986 1.063 0 1 1 0-2.124.986 1.063 0 0 1 0 2.127zm4.056 7.29a.986 1.063 0 0 1 0-2.126.986 1.063 0 0 1 0 2.124zm0-3.645a.986 1.063 0 0 1 0-2.126.986 1.063 0 0 1 0 2.126zm0-3.645a.986 1.062 0 0 1 0-2.125.986 1.063 0 0 1 0 2.126z"/></g><path id="path188" d="M187.192 405.883H168.56a2.83 2.52 0 0 0-2.824 2.514v32.2a2.83 2.52 0 0 0 2.823 2.516h18.63a2.83 2.52 0 0 0 2.824-2.514v-32.204a2.83 2.52 0 0 0-2.823-2.514zm-12.297 1.812h5.96a.342.305 0 0 1 0 .61h-5.96a.342.305 0 0 1 0-.61zm2.98 34.16a1.41 1.257 0 1 1 0-2.514 1.41 1.257 0 0 1 0 2.517zm10.174-3.395H167.7v-28.588h20.347zm9.694 29.71h-4.575v-4.19c0-.857-.684-1.55-1.527-1.55h-22.11c-.843 0-1.526.693-1.526 1.55v4.19h-4.575c-.842 0-1.525.693-1.525 1.55v15.203c0 .857.683 1.552 1.525 1.552h4.575v8.176c0 .52.103.904.496 1.27.183.17.378.28.617.35.222.062.44.057.664.057h21.61c.223 0 .442.005.663-.058.24-.07.434-.18.617-.35.393-.367.495-.753.495-1.27v-8.174h4.573c.842 0 1.525-.695 1.525-1.552V469.72c0-.857-.684-1.55-1.526-1.55zm-32.023 5.467a1.346 1.346 0 0 1-1.333-1.357c0-.75.598-1.358 1.335-1.358.738 0 1.335.608 1.335 1.358 0 .75-.597 1.357-1.334 1.357zm25.925 21.137h-22.11V482.52h22.11v12.254zm0-26.605h-22.11v-2.64c0-.856.682-1.55 1.524-1.55h19.06c.843 0 1.525.694 1.525 1.55v2.638zm-11.785 62.194h.007c.27 0 .538-.087.754-.245l.06-.044.04-.028.684-.628 16.317-14.918a.187.187 0 0 0-.152-.087H162.06a.174.174 0 0 0-.117.047l17.07 15.59c.216.197.523.31.846.31zm-17.99-13.833v22.116L174.1 527.7l-12.23-11.17zm23.67 11.244l12.217 10.877v-22.045zm-3.883 3.55a2.657 2.657 0 0 1-1.793.687 2.66 2.66 0 0 1-1.794-.682l-2.8-2.56-13.4 11.992v.037c0 .114.09.21.193.21h35.505c.102 0 .19-.096.19-.21v-.036l-13.388-11.916-2.713 2.48z"/><g id="g194" fill="#fff"><path id="path190" d="M173.87 585.976l-4.963-4.646-14.19 13.015a2.812 2.812 0 0 0 1.977.828h34.347a2.79 2.79 0 0 0 1.972-.828l-14.178-13.018z"/><path id="path192" d="M193.02 565.347a2.885 3.087 0 0 0-1.976-.828h-34.35c-.765 0-1.46.32-1.977.836l19.152 17.555zm-39.207 1.864v25.467l13.848-12.586zm26.265 12.88l13.848 12.584V567.2z"/></g><g id="g200" fill="#fff"><path id="path196" d="M115.048 397.154c-4.534-.35-8.624-1.18-12.125-3.21-.434-.253-.885-.495-1.28-.778-1.532-1.092-1.687-2.34-.474-3.63 1.036-1.102 2.777-1.397 4.587-.764.35.123.684.275 1.005.44 6.523 3.325 15.487 3.416 22.035.15.65-.37 1.342-.67 2.147-.824 1.562-.298 3.02.128 3.86 1.142.958 1.16.945 2.29-.236 3.19-1.812 1.377-3.988 2.374-6.408 3.07-2.29.66-4.796.99-7.277 1.21.373.303.55.45.784.624 3.37 2.51 6.75 5.01 10.108 7.53 1.146.857 1.384 1.92.754 2.918-.69 1.09-2.23 1.81-3.742 1.732-.958-.05-1.705-.403-2.367-.9-2.543-1.896-5.13-3.758-7.622-5.69-.725-.563-1.075-.457-1.714.03a463.18 463.18 0 0 1-7.77 5.788c-1.175.858-2.572 1.013-3.933.522-1.447-.52-2.367-1.615-2.296-2.717.048-.745.543-1.313 1.23-1.823 3.336-2.468 6.66-4.945 9.986-7.416.22-.165.425-.34.745-.594z"/><path id="path198" d="M117.812 388.556c-8.09-.022-14.726-4.995-14.68-11.005.048-6.075 6.685-10.97 14.857-10.954 8.186.015 14.757 4.982 14.715 11.122-.042 5.997-6.72 10.858-14.893 10.836zm7.35-10.99c-.01-2.985-3.215-5.36-7.232-5.363-4.048-.004-7.282 2.415-7.25 5.426.03 2.97 3.26 5.33 7.288 5.32 4.013-.01 7.21-2.402 7.197-5.384z"/></g><path id="path202" d="M140.382 463.263a4.155 4.155 0 0 0-.158-.366c-.814-1.754-2.37-3.906-4.665-6.46l-.05-.058-.024-.03-.024-.03h-.024c-1.042-1.188-1.703-1.987-1.98-2.396-.505-.78-.618-1.57-.34-2.368.193-.604.927-1.88 2.196-3.83a215.09 215.09 0 0 0 1.587-2.484c2.82-4.482 4.042-7.346 3.667-8.592l-.145-.293c-.1-.175-.35-.336-.757-.484-.41-.145-.93-.17-1.565-.072l-7.036.06c-.113-.05-.275-.045-.487.014l-.318.09-.123.07-.1.09c-.08.06-.17.16-.268.306a2.135 2.135 0 0 0-.243.51 52.338 52.338 0 0 1-2.614 6.58 64.98 64.98 0 0 1-1.66 3.14c-.505.89-.93 1.54-1.27 1.96-.343.42-.652.754-.93 1.008-.277.254-.488.36-.634.32a17.9 21.418 0 0 1-.417-.116 1.857 1.857 0 0 1-.55-.715c-.138-.303-.232-.682-.28-1.14a14.87 14.87 0 0 1-.086-1.185c-.01-.332-.004-.798.013-1.403.016-.606.023-1.014.023-1.23 0-.74.013-1.544.036-2.41.024-.868.044-1.555.062-2.06a50.5 50.5 0 0 0 .023-1.61c0-.564-.028-1.008-.085-1.33a3.803 4.55 0 0 0-.256-.935 1.532 1.532 0 0 0-.5-.7 2.583 2.583 0 0 0-.818-.396c-.863-.234-1.96-.362-3.298-.38-3.03-.04-4.975.194-5.84.7-.34.215-.65.507-.926.877-.294.43-.335.664-.123.7.977.176 1.667.595 2.075 1.257l.147.352c.116.254.23.702.343 1.345.114.643.188 1.355.22 2.134.08 1.422.08 2.64 0 3.654a49.036 49.036 0 0 1-.233 2.368c-.072.565-.182 1.022-.33 1.372-.145.35-.242.565-.292.644a.466.466 0 0 1-.122.146 1.83 2.188 0 0 1-.66.146c-.228 0-.504-.136-.83-.41-.325-.27-.663-.646-1.013-1.124-.35-.478-.745-1.146-1.186-2.003a37.618 37.618 0 0 1-1.37-3.04l-.39-.848a79.223 79.223 0 0 1-1-2.383 50.85 50.85 0 0 1-1.124-3.026c-.13-.408-.326-.72-.587-.934l-.122-.088a1.605 1.605 0 0 0-.39-.248 2.592 3.103 0 0 0-.563-.19l-6.694.058c-.682 0-1.147.185-1.39.556l-.1.175c-.048.097-.07.253-.07.467 0 .215.046.477.144.79a105.834 105.834 0 0 0 3.188 7.95c1.148 2.55 2.146 4.608 2.992 6.165a74.402 74.402 0 0 0 2.59 4.413c.88 1.385 1.463 2.27 1.747 2.66.286.39.51.683.674.878l.61.7c.39.47.965 1.03 1.722 1.682a29.293 29.293 0 0 0 2.516 1.93c.92.633 1.99 1.148 3.214 1.55 1.22.398 2.41.558 3.566.48h2.81c.568-.058 1-.272 1.293-.642l.1-.146c.063-.117.124-.298.18-.54a3.525 3.525 0 0 0 .086-.805c-.015-.838.037-1.593.16-2.265.122-.673.26-1.18.415-1.52.155-.34.33-.628.526-.86.194-.234.334-.378.416-.426.08-.05.145-.082.195-.103.39-.155.85-.004 1.382.454a8.96 8.96 0 0 1 1.49 1.696 51.16 51.16 0 0 0 1.672 2.267c.652.838 1.222 1.46 1.71 1.87l.49.35c.325.236.748.45 1.27.645.52.195.975.244 1.367.147l6.253-.117c.618 0 1.1-.123 1.442-.366.34-.244.545-.51.61-.803a2.68 2.68 0 0 0 .013-.997c-.058-.368-.115-.628-.172-.773z" fill="#fff" stroke-width=".897"/><path id="path216" d="M124.115 492.958c-5.64 0-9.282 4.165-9.282 10.613v4.894h-5.047a.79.88 0 0 0-.79.88v7.09a.79.88 0 0 0 .79.878h5.047v17.89a.79.88 0 0 0 .79.88h6.583a.79.88 0 0 0 .79-.88v-17.89h5.9a.79.88 0 0 0 .788-.88l.002-7.09a.79.88 0 0 0-.79-.878h-5.902v-4.148c0-1.994.426-3.006 2.757-3.006l3.382-.002a.79.88 0 0 0 .79-.88v-6.583a.79.88 0 0 0-.788-.88z" fill="#fff" stroke-width=".425"/><g id="g232" fill="#fff"><path d="M161.256 667.872c-5.825 0-10.565 4.996-10.565 11.14 0 6.14 4.74 11.14 10.566 11.14 5.826 0 10.566-5 10.566-11.14 0-6.144-4.74-11.14-10.566-11.14zm0 19.797c-4.528 0-8.21-3.884-8.21-8.658 0-4.776 3.682-8.66 8.21-8.66 4.53 0 8.212 3.884 8.212 8.66 0 4.774-3.683 8.657-8.212 8.657z" id="path228"/><path d="M164.724 681.03c-.675 1.22-1.93 1.98-3.275 1.98-2.09 0-3.792-1.795-3.792-3.998 0-2.205 1.702-4 3.79-4 1.346 0 2.6.76 3.276 1.98l.087.16h2.548l-.153-.433a6.414 6.414 0 0 0-2.25-3.043 5.914 5.914 0 0 0-3.506-1.152c-3.393 0-6.15 2.91-6.15 6.487 0 3.576 2.757 6.484 6.15 6.484a5.906 5.906 0 0 0 3.505-1.152 6.415 6.415 0 0 0 2.25-3.04l.153-.434h-2.547l-.086.16z" id="path230"/></g><style id="style266">.st0{fill:#03081e}.st1{fill:#FFF}</style><g id="g282"><path class="st0" d="M140.497 588.104a1.406 1.406 0 0 0-1.998 0l-17.606 17.64-17.64-17.64a1.406 1.406 0 0 0-1.998 0 1.406 1.406 0 0 0 0 2l18.612 18.612c.278.278.626.417 1.008.417.348 0 .73-.14 1.008-.417l18.613-18.613c.556-.556.556-1.46 0-2z" id="path268" fill="#03081e"/><path class="st1" d="M139.28 556.232a1.406 1.406 0 0 0-1.998 0l-17.605 17.64-17.64-17.64a1.406 1.406 0 0 0-1.998 0 1.406 1.406 0 0 0 0 1.998l18.612 18.613c.278.278.625.417 1.008.417.347 0 .73-.14 1.008-.417l18.578-18.613c.59-.54.59-1.442.035-1.998z" id="path270" fill="#fff"/></g></svg>